<svg fill="none" xmlns="http://www.w3.org/2000/svg" viewBox="0 0 360 300">
  <path
    d="M283.44 226.966a.578.578 0 0 0-.787-.2l-1.907 1.126-1.126-1.906a.574.574 0 0 0-.988.586l1.126 1.906-1.906 1.127a.571.571 0 0 0-.263.352.571.571 0 0 0 .414.698.567.567 0 0 0 .435-.062l1.907-1.127 1.126 1.907a.573.573 0 0 0 .785.201.576.576 0 0 0 .203-.787l-1.127-1.907 1.907-1.127a.573.573 0 0 0 .201-.787ZM288.272 239.58a2.504 2.504 0 0 1-2.502-2.502 2.504 2.504 0 0 1 2.502-2.502 2.506 2.506 0 0 1 2.502 2.502 2.508 2.508 0 0 1-2.502 2.502Zm0-3.664a1.166 1.166 0 0 0 0 2.33 1.166 1.166 0 0 0 0-2.33ZM35.605 276.295a2.505 2.505 0 0 1-2.502-2.503 2.504 2.504 0 0 1 2.502-2.502 2.504 2.504 0 0 1 2.502 2.502 2.505 2.505 0 0 1-2.502 2.503Zm0-3.668a1.166 1.166 0 1 0 1.165 1.165c0-.641-.522-1.165-1.165-1.165ZM312.627 7.289a2.506 2.506 0 0 1-2.502-2.502 2.504 2.504 0 0 1 2.502-2.502 2.504 2.504 0 0 1 2.502 2.502 2.507 2.507 0 0 1-2.502 2.502Zm0-3.665c-.641 0-1.165.522-1.165 1.165 0 .641.522 1.165 1.165 1.165.641 0 1.165-.521 1.165-1.165a1.168 1.168 0 0 0-1.165-1.165ZM355.449 70.645a.567.567 0 0 0-.292.33.564.564 0 0 0 .026.438l.969 1.99-1.99.969a.567.567 0 0 0-.292.33.564.564 0 0 0 .026.438.567.567 0 0 0 .33.292c.146.05.302.04.438-.027l1.99-.969.969 1.99a.568.568 0 0 0 .33.293c.146.05.302.04.438-.027a.57.57 0 0 0 .292-.33.568.568 0 0 0-.027-.438l-.968-1.99 1.99-.969a.57.57 0 0 0 .263-.765.575.575 0 0 0-.768-.266l-1.99.97-.969-1.991a.57.57 0 0 0-.765-.268ZM319.306 118.253a2.504 2.504 0 0 1-2.502-2.502 2.504 2.504 0 0 1 2.502-2.502 2.504 2.504 0 0 1 2.502 2.502 2.507 2.507 0 0 1-2.502 2.502Zm0-3.667a1.166 1.166 0 1 0 1.165 1.165 1.17 1.17 0 0 0-1.165-1.165ZM.309 153.128a.57.57 0 0 0-.026.811l1.514 1.615-1.615 1.514a.568.568 0 0 0-.026.811.568.568 0 0 0 .81.026l1.615-1.514 1.515 1.615a.57.57 0 0 0 .81.026.574.574 0 0 0 .026-.811l-1.513-1.614 1.614-1.515a.574.574 0 1 0-.787-.837l-1.614 1.514-1.515-1.614a.57.57 0 0 0-.808-.027ZM24.957 180.633a2.504 2.504 0 0 1-2.502-2.502 2.505 2.505 0 0 1 2.502-2.503 2.504 2.504 0 0 1 2.502 2.503 2.504 2.504 0 0 1-2.502 2.502Zm0-3.667a1.166 1.166 0 0 0 0 2.33 1.166 1.166 0 0 0 0-2.33ZM68.03 259.263a.51.51 0 0 1-.027-1.017 60.464 60.464 0 0 0 5.05-.498.51.51 0 0 1 .141 1.008c-1.7.239-3.428.411-5.136.507h-.029Zm-7.163-.022h-.033a61.658 61.658 0 0 1-5.131-.54.51.51 0 0 1 .15-1.008c1.665.249 3.364.426 5.045.531a.51.51 0 0 1-.03 1.017Zm19.276-1.892a.51.51 0 0 1-.129-1.002 61.109 61.109 0 0 0 4.849-1.493.512.512 0 0 1 .65.309.511.511 0 0 1-.308.65 61.207 61.207 0 0 1-4.93 1.519.509.509 0 0 1-.132.017Zm-31.375-.117a.443.443 0 0 1-.134-.019 61.427 61.427 0 0 1-4.916-1.57.51.51 0 0 1-.304-.653.512.512 0 0 1 .653-.304 61.026 61.026 0 0 0 4.835 1.543.51.51 0 0 1-.134 1.003Zm42.86-4.179a.509.509 0 0 1-.227-.964 60.934 60.934 0 0 0 4.447-2.443.507.507 0 0 1 .698.172.508.508 0 0 1-.172.699A61.21 61.21 0 0 1 91.853 253a.507.507 0 0 1-.225.053Zm-54.302-.235a.49.49 0 0 1-.23-.055 62.972 62.972 0 0 1-4.499-2.523.51.51 0 1 1 .536-.866 60.934 60.934 0 0 0 4.425 2.483.509.509 0 0 1 .225.684.522.522 0 0 1-.457.277ZM102 246.525a.51.51 0 0 1-.313-.912 60.824 60.824 0 0 0 3.861-3.291.51.51 0 1 1 .693.746 60.989 60.989 0 0 1-3.925 3.346.502.502 0 0 1-.316.111Zm-74.998-.323a.508.508 0 0 1-.316-.11 61.591 61.591 0 0 1-3.904-3.376.508.508 0 0 1-.021-.72.507.507 0 0 1 .72-.021 61.138 61.138 0 0 0 3.839 3.318.509.509 0 0 1-.318.909Zm83.842-8.167a.51.51 0 0 1-.388-.84 61.472 61.472 0 0 0 3.122-3.999.507.507 0 0 1 .711-.118.508.508 0 0 1 .117.711 61.51 61.51 0 0 1-3.175 4.066c-.1.12-.244.18-.387.18Zm-92.629-.383a.506.506 0 0 1-.39-.182 60.331 60.331 0 0 1-3.145-4.09.509.509 0 1 1 .835-.586 59.805 59.805 0 0 0 3.093 4.021.508.508 0 0 1-.393.837Zm99.592-9.71a.508.508 0 0 1-.444-.753 60.778 60.778 0 0 0 2.258-4.545.51.51 0 0 1 .672-.259.51.51 0 0 1 .258.673 61.275 61.275 0 0 1-2.296 4.621.513.513 0 0 1-.448.263Zm-106.476-.437a.513.513 0 0 1-.45-.268 60.158 60.158 0 0 1-2.25-4.643.509.509 0 1 1 .934-.405 59.7 59.7 0 0 0 2.213 4.564.508.508 0 0 1-.447.752Zm111.277-10.849a.508.508 0 0 1-.485-.66c.5-1.61.935-3.26 1.296-4.906a.51.51 0 0 1 .993.217 60.892 60.892 0 0 1-1.318 4.988.508.508 0 0 1-.486.361Zm-115.963-.483a.51.51 0 0 1-.488-.364 61.832 61.832 0 0 1-1.27-4.999.51.51 0 0 1 .998-.208 61.142 61.142 0 0 0 1.248 4.918.508.508 0 0 1-.488.653Zm118.389-11.542c-.017 0-.033 0-.05-.002a.507.507 0 0 1-.457-.555c.163-1.677.256-3.38.275-5.067a.506.506 0 0 1 .514-.502.506.506 0 0 1 .503.514 60.717 60.717 0 0 1-.28 5.153.507.507 0 0 1-.505.459Zm-120.71-.5a.51.51 0 0 1-.507-.464 60.844 60.844 0 0 1-.249-5.155.508.508 0 0 1 .508-.512h.002a.51.51 0 0 1 .51.507c.009 1.684.09 3.387.243 5.069a.51.51 0 0 1-.461.553c-.015.002-.029.002-.046.002Zm120.648-11.762a.508.508 0 0 1-.505-.455 61.019 61.019 0 0 0-.749-5.018l-.012-.065a.508.508 0 0 1 .998-.194l.012.067c.325 1.689.581 3.404.763 5.105a.508.508 0 0 1-.452.56c-.019-.003-.038 0-.055 0Zm-120.507-.505c-.019 0-.038 0-.057-.002a.506.506 0 0 1-.447-.562c.193-1.704.464-3.419.801-5.098a.51.51 0 0 1 1 .201 59.282 59.282 0 0 0-.787 5.011.515.515 0 0 1-.51.45Zm117.971-11.561a.511.511 0 0 1-.485-.354 60.753 60.753 0 0 0-1.739-4.765.508.508 0 1 1 .94-.39 61.726 61.726 0 0 1 1.77 4.846.507.507 0 0 1-.486.663Zm-115.349-.421a.512.512 0 0 1-.483-.67 61.438 61.438 0 0 1 1.816-4.83.51.51 0 0 1 .937.397 59.823 59.823 0 0 0-1.784 4.749.515.515 0 0 1-.486.354Zm110.469-10.827a.51.51 0 0 1-.445-.261 59.906 59.906 0 0 0-2.669-4.313.51.51 0 0 1 .842-.574 62.814 62.814 0 0 1 2.715 4.387.51.51 0 0 1-.443.761Zm-105.486-.378a.509.509 0 0 1-.44-.761 61.763 61.763 0 0 1 2.746-4.368.508.508 0 1 1 .837.579 59.797 59.797 0 0 0-2.7 4.297.51.51 0 0 1-.443.253Zm98.429-9.645a.514.514 0 0 1-.385-.175 61.244 61.244 0 0 0-3.485-3.686.51.51 0 0 1 .71-.73 61.83 61.83 0 0 1 3.546 3.749.509.509 0 0 1-.386.842Zm-91.303-.333a.508.508 0 0 1-.38-.844 61.589 61.589 0 0 1 3.567-3.729.51.51 0 0 1 .705.734 60.45 60.45 0 0 0-3.507 3.667.521.521 0 0 1-.385.172Zm82.369-8.063a.497.497 0 0 1-.309-.106 60.897 60.897 0 0 0-4.155-2.913.508.508 0 1 1 .55-.857 62.263 62.263 0 0 1 4.225 2.962.51.51 0 0 1-.311.914Zm-73.386-.283a.51.51 0 0 1-.309-.914 60.504 60.504 0 0 1 4.244-2.932.51.51 0 1 1 .543.863 58.976 58.976 0 0 0-4.172 2.885.532.532 0 0 1-.306.098Zm62.949-6.157a.536.536 0 0 1-.223-.05 60.412 60.412 0 0 0-4.652-2.022.507.507 0 0 1-.292-.657.507.507 0 0 1 .658-.292 60.518 60.518 0 0 1 4.731 2.057.508.508 0 0 1-.222.964Zm-52.467-.201a.512.512 0 0 1-.218-.971 60.511 60.511 0 0 1 4.751-2.012.51.51 0 0 1 .357.954 59.643 59.643 0 0 0-4.672 1.979.507.507 0 0 1-.218.05Zm40.949-4.014a.474.474 0 0 1-.127-.017 59.663 59.663 0 0 0-4.966-1.04.51.51 0 0 1 .167-1.005c1.69.28 3.39.636 5.05 1.06a.51.51 0 0 1-.124 1.002Zm-29.397-.093a.509.509 0 0 1-.122-1.003 64.17 64.17 0 0 1 3.074-.672 55.26 55.26 0 0 1 1.983-.347.512.512 0 0 1 .583.424.512.512 0 0 1-.423.583 60.934 60.934 0 0 0-4.976 1.003.67.67 0 0 1-.12.012Zm17.261-1.704h-.023a60.298 60.298 0 0 0-5.074-.011.513.513 0 0 1-.529-.488.51.51 0 0 1 .488-.529 63.4 63.4 0 0 1 2.426-.048c.906 0 1.827.022 2.734.062a.507.507 0 0 1-.022 1.014ZM251.023 213.018c-.295.019-.587.036-.878.052a.506.506 0 0 1-.536-.478.506.506 0 0 1 .476-.536h.005c1.665-.093 3.349-.23 5.011-.402a.51.51 0 1 1 .105 1.014c-1.389.142-2.796.259-4.183.35Zm-7.94.217c-.012 0-.026.003-.038 0a104.43 104.43 0 0 1-5.069-.172.51.51 0 1 1 .06-1.017c1.665.096 3.353.154 5.021.17a.51.51 0 0 1 .026 1.019Zm19.101-1.528a.51.51 0 0 1-.117-1.012c1.648-.28 3.306-.605 4.933-.962a.51.51 0 0 1 .607.388.507.507 0 0 1-.387.605 107.74 107.74 0 0 1-4.978.971c-.022.007-.039.007-.058.01Zm-31.186.713a.616.616 0 0 1-.096-.003c-1.672-.21-3.361-.461-5.016-.751a.507.507 0 1 1 .175-1.002c1.641.287 3.313.536 4.968.744.28.036.476.289.443.569a.512.512 0 0 1-.474.443Zm42.992-3.424a.508.508 0 0 1-.175-.997c1.603-.464 3.212-.976 4.789-1.517a.51.51 0 0 1 .33.962c-1.593.545-3.22 1.062-4.837 1.531a.328.328 0 0 1-.107.021Zm-54.912 1.225a.468.468 0 0 1-.153-.014c-1.636-.4-3.287-.847-4.906-1.325a.509.509 0 1 1 .287-.976c1.602.473 3.239.916 4.86 1.313a.509.509 0 0 1-.088 1.002Zm66.332-5.262a.51.51 0 0 1-.23-.979 106.305 106.305 0 0 0 4.586-2.055.509.509 0 0 1 .44.919 107.781 107.781 0 0 1-4.629 2.076.567.567 0 0 1-.167.039Zm-77.929 1.708a.5.5 0 0 1-.211-.032 109.202 109.202 0 0 1-4.719-1.877.509.509 0 0 1 .399-.936c1.538.656 3.11 1.28 4.674 1.861.263.098.397.39.302.656a.509.509 0 0 1-.445.328Zm88.798-7.026a.51.51 0 0 1-.282-.952c1.45-.816 2.899-1.677 4.311-2.562a.51.51 0 0 1 .54.861 108.783 108.783 0 0 1-4.351 2.588.51.51 0 0 1-.218.065Zm-99.905 2.17a.523.523 0 0 1-.263-.055 114.308 114.308 0 0 1-4.473-2.402.51.51 0 1 1 .502-.885c1.45.825 2.94 1.624 4.43 2.38a.509.509 0 0 1-.196.962Zm110.091-8.696a.509.509 0 0 1-.332-.921c1.349-.978 2.691-2 3.992-3.04a.508.508 0 1 1 .636.794 106.933 106.933 0 0 1-4.03 3.069.475.475 0 0 1-.266.098Zm-120.571 2.61a.495.495 0 0 1-.313-.084 108.993 108.993 0 0 1-4.17-2.894.507.507 0 0 1-.11-.711.507.507 0 0 1 .711-.11c1.346.983 2.736 1.947 4.129 2.866a.51.51 0 0 1-.247.933Zm129.951-10.258a.512.512 0 0 1-.378-.885 106.073 106.073 0 0 0 3.624-3.478.51.51 0 0 1 .722.718 108.172 108.172 0 0 1-3.657 3.511.503.503 0 0 1-.311.134Zm-139.668 3.024a.514.514 0 0 1-.359-.117 109.956 109.956 0 0 1-3.813-3.344.51.51 0 0 1 .692-.749 105.116 105.116 0 0 0 3.777 3.313.511.511 0 0 1 .064.718.526.526 0 0 1-.361.179Zm148.119-11.693a.509.509 0 0 1-.416-.842 104.867 104.867 0 0 0 3.208-3.868.51.51 0 0 1 .799.632 108.586 108.586 0 0 1-3.239 3.904.508.508 0 0 1-.352.174Zm-156.951 3.409a.5.5 0 0 1-.401-.158 109.767 109.767 0 0 1-3.407-3.753.509.509 0 1 1 .77-.665 108.013 108.013 0 0 0 3.373 3.72.51.51 0 0 1-.016.72.532.532 0 0 1-.319.136Zm164.372-12.984a.51.51 0 0 1-.452-.797c.944-1.376 1.87-2.792 2.748-4.208a.51.51 0 0 1 .866.536 105.975 105.975 0 0 1-2.775 4.248.516.516 0 0 1-.387.221Zm-172.203 3.753a.519.519 0 0 1-.441-.201 108.534 108.534 0 0 1-2.954-4.115.51.51 0 0 1 .842-.574c.94 1.376 1.924 2.746 2.926 4.076a.508.508 0 0 1-.373.814Zm178.489-14.111a.51.51 0 0 1-.481-.749 107.758 107.758 0 0 0 2.256-4.495.51.51 0 0 1 .921.433 106.176 106.176 0 0 1-2.277 4.538.511.511 0 0 1-.419.273Zm-185.211 4.054a.51.51 0 0 1-.472-.249 104.188 104.188 0 0 1-2.461-4.423.506.506 0 0 1 .213-.686.505.505 0 0 1 .686.213 105.093 105.093 0 0 0 2.44 4.38.507.507 0 0 1-.406.765Zm190.282-15.063a.51.51 0 0 1-.504-.694 102.311 102.311 0 0 0 1.727-4.727.51.51 0 0 1 .964.328 107.62 107.62 0 0 1-1.744 4.772.511.511 0 0 1-.443.321Zm-195.813 4.299a.506.506 0 0 1-.497-.302 106.931 106.931 0 0 1-1.943-4.686.51.51 0 0 1 .95-.366 107.338 107.338 0 0 0 1.923 4.641.51.51 0 0 1-.433.713Zm199.595-15.822a.507.507 0 0 1-.523-.639c.428-1.617.825-3.263 1.174-4.896a.509.509 0 1 1 .995.215 107.294 107.294 0 0 1-1.186 4.944.507.507 0 0 1-.46.376Zm-203.855 4.485a.508.508 0 0 1-.519-.356c-.5-1.608-.969-3.249-1.393-4.878a.512.512 0 0 1 .364-.622.512.512 0 0 1 .622.364c.419 1.615.885 3.239 1.38 4.832a.508.508 0 0 1-.454.66Zm206.288-16.36a.51.51 0 0 1-.538-.581c.239-1.648.443-3.327.603-4.987a.507.507 0 0 1 .555-.457c.28.026.485.275.457.555-.163 1.676-.369 3.37-.61 5.035a.503.503 0 0 1-.467.435Zm-209.226 4.61a.51.51 0 0 1-.533-.414c-.314-1.65-.594-3.334-.833-5.004a.51.51 0 0 1 1.01-.144c.234 1.653.512 3.323.823 4.959a.512.512 0 0 1-.467.603Zm210.279-16.676c-.017 0-.031.003-.048 0a.508.508 0 0 1-.493-.523c.05-1.668.06-3.357.029-5.024a.509.509 0 1 1 1.019-.019c.031 1.684.021 3.39-.029 5.074a.515.515 0 0 1-.478.492ZM138.47 115.06a.51.51 0 0 1-.541-.469c-.031-.397-.057-.795-.083-1.189a104.783 104.783 0 0 1-.18-3.878.51.51 0 0 1 1.019-.029 102.546 102.546 0 0 0 .263 5.017.508.508 0 0 1-.468.545l-.01.003Zm211.537-16.774a.512.512 0 0 1-.541-.464 103.31 103.31 0 0 0-.54-4.997l-.022-.16a.51.51 0 1 1 1.01-.135l.021.163c.22 1.672.404 3.368.546 5.043a.51.51 0 0 1-.474.55Zm-211.764 4.662c-.017 0-.036.003-.053 0a.511.511 0 0 1-.49-.529c.064-1.684.17-3.387.315-5.064a.51.51 0 0 1 1.015.086c-.144 1.66-.249 3.349-.311 5.014a.513.513 0 0 1-.476.493ZM348.28 86.129a.508.508 0 0 1-.531-.41 107.4 107.4 0 0 0-1.105-4.9.508.508 0 1 1 .988-.246c.409 1.63.784 3.295 1.117 4.948a.51.51 0 0 1-.4.6c-.024.003-.048.008-.069.008Zm-208.882 4.763a.51.51 0 0 1-.536-.586c.259-1.668.56-3.352.897-5.007a.51.51 0 0 1 .998.203 102.844 102.844 0 0 0-.888 4.96.51.51 0 0 1-.471.43ZM345.223 74.41a.507.507 0 0 1-.517-.352 103.419 103.419 0 0 0-1.658-4.743.51.51 0 0 1 .952-.36 108.02 108.02 0 0 1 1.675 4.79.509.509 0 0 1-.452.665Zm-203.287 4.62a.51.51 0 0 1-.524-.644c.448-1.627.94-3.263 1.464-4.866a.508.508 0 1 1 .967.316 106.96 106.96 0 0 0-1.45 4.82.509.509 0 0 1-.457.373Zm198.911-15.911a.504.504 0 0 1-.495-.297 103.315 103.315 0 0 0-2.191-4.52.51.51 0 1 1 .907-.467c.77 1.497 1.514 3.033 2.212 4.566a.51.51 0 0 1-.251.675.646.646 0 0 1-.182.043Zm-195.028 4.42a.51.51 0 0 1-.505-.698 104.834 104.834 0 0 1 2.012-4.665.505.505 0 0 1 .674-.248.505.505 0 0 1 .249.674 106.336 106.336 0 0 0-1.993 4.62.506.506 0 0 1-.437.318Zm189.388-15.13a.505.505 0 0 1-.469-.246 104.871 104.871 0 0 0-2.691-4.234.509.509 0 0 1 .844-.567 104.079 104.079 0 0 1 2.715 4.275.51.51 0 0 1-.399.772Zm-184.221 4.165a.508.508 0 0 1-.479-.751c.804-1.48 1.653-2.962 2.526-4.402a.508.508 0 1 1 .871.526 103.385 103.385 0 0 0-2.502 4.362.517.517 0 0 1-.416.265Zm177.396-14.152a.507.507 0 0 1-.435-.196 108.458 108.458 0 0 0-3.158-3.901.51.51 0 0 1 .775-.66 110.508 110.508 0 0 1 3.189 3.94.507.507 0 0 1-.371.817Zm-171.019 3.85a.508.508 0 0 1-.45-.799 109.353 109.353 0 0 1 3.01-4.087.51.51 0 0 1 .806.625 104.256 104.256 0 0 0-2.981 4.047.516.516 0 0 1-.385.213Zm163.094-13a.517.517 0 0 1-.4-.153 103.942 103.942 0 0 0-3.583-3.519.51.51 0 0 1 .696-.744 110.163 110.163 0 0 1 3.617 3.553.51.51 0 0 1-.33.863ZM164.865 36.76a.508.508 0 0 1-.414-.844 108.158 108.158 0 0 1 3.449-3.718c.197-.2.52-.206.721-.01.2.197.205.52.009.72a105.262 105.262 0 0 0-3.418 3.682.495.495 0 0 1-.347.17Zm146.676-11.683a.51.51 0 0 1-.356-.115 105.624 105.624 0 0 0-3.961-3.093.51.51 0 0 1-.106-.713.51.51 0 0 1 .713-.105 109.246 109.246 0 0 1 4 3.122.51.51 0 0 1-.29.904Zm-138.146 3.088a.509.509 0 0 1-.373-.887 107.225 107.225 0 0 1 3.849-3.3.508.508 0 1 1 .643.788 105.4 105.4 0 0 0-3.81 3.268.511.511 0 0 1-.309.131ZM301.75 17.943a.499.499 0 0 1-.308-.08 108.064 108.064 0 0 0-4.287-2.625.508.508 0 1 1 .512-.88c1.457.844 2.914 1.736 4.33 2.65a.508.508 0 0 1-.247.935ZM182.839 20.6a.509.509 0 0 1-.327-.923c1.37-.974 2.782-1.929 4.195-2.838a.508.508 0 1 1 .551.857c-1.402.9-2.799 1.844-4.156 2.808a.476.476 0 0 1-.263.096Zm108.372-8.636a.5.5 0 0 1-.259-.052 105.08 105.08 0 0 0-4.562-2.122.509.509 0 1 1 .407-.933c1.545.674 3.093 1.394 4.605 2.14.251.125.356.431.23.682a.506.506 0 0 1-.421.285Zm-98.128 2.2a.51.51 0 0 1-.278-.954c1.476-.813 2.99-1.6 4.502-2.341a.51.51 0 0 1 .45.913 107.063 107.063 0 0 0-4.459 2.318.492.492 0 0 1-.215.065Zm86.971-6.944a.517.517 0 0 1-.206-.028 105.231 105.231 0 0 0-4.775-1.586.507.507 0 0 1-.337-.637.508.508 0 0 1 .636-.337c1.612.493 3.234 1.031 4.823 1.603a.508.508 0 0 1-.141.985ZM204.01 8.94a.51.51 0 0 1-.227-.98 107.694 107.694 0 0 1 4.738-1.809.512.512 0 0 1 .651.309.512.512 0 0 1-.309.65c-1.571.558-3.152 1.16-4.693 1.792a.565.565 0 0 1-.16.038Zm64.413-5.155a.522.522 0 0 1-.148-.012c-1.627-.38-3.287-.727-4.931-1.028a.51.51 0 1 1 .185-1.003c1.66.304 3.334.654 4.978 1.039a.51.51 0 0 1-.084 1.004Zm-52.96 1.218a.506.506 0 0 1-.521-.37.506.506 0 0 1 .352-.628c1.619-.454 3.272-.877 4.915-1.255a.508.508 0 0 1 .61.382.507.507 0 0 1-.382.61c-1.627.373-3.266.792-4.868 1.244a.567.567 0 0 1-.106.017Zm41.016-3.294a.387.387 0 0 1-.091-.002 105.856 105.856 0 0 0-5.004-.455.51.51 0 1 1 .069-1.017c1.682.113 3.38.266 5.052.46a.508.508 0 0 1-.026 1.014Zm-29.189.689a.51.51 0 0 1-.115-1.01 105.211 105.211 0 0 1 5.026-.69.514.514 0 0 1 .565.446.512.512 0 0 1-.448.565 112.128 112.128 0 0 0-4.978.684c-.019.003-.035.003-.05.005Zm17.097-1.38h-.034c-1.665 0-3.356.04-5.023.12a.507.507 0 0 1-.058-1.014l.01-.001c1.684-.081 3.39-.122 5.071-.122a.508.508 0 0 1 .034 1.017Z"
    fill="#DEDEDE"/>
  <path
    d="M261.109 63.299v175.138h-.459l-13.26-12.903-13.259 12.903h-1.381l-13.262-12.903-13.259 12.903h-1.364l-13.238-12.879-13.236 12.879h-1.354l-13.252-12.894-13.253 12.894h-1.397l-13.252-12.894-13.25 12.894h-1.383l-13.226-12.87-13.226 12.87h-.873V14.623h118.511L261.109 63.3Z"
    fill="#F2F2F2"/>
  <path d="M261.111 63.299h-48.675V14.623L261.111 63.3Z" fill="#DEDEDE"/>
  <path
    d="M138.916 154.41v-6.549h-17.678c-2.23 0-3.904-.505-5.019-1.515-1.115-1.009-1.672-2.382-1.672-4.119 0-.445.081-.897.246-1.356a7.23 7.23 0 0 1 .739-1.445 27.5 27.5 0 0 1 1.022-1.462c.351-.469.787-1.045 1.304-1.724l18.663-24.967c1.22-1.644 2.225-2.835 3.012-3.574.787-.739 1.732-1.11 2.834-1.11 3.57 0 5.354 2.043 5.354 6.126v27.256h1.514c1.809 0 3.258.247 4.349.739 1.091.493 1.639 1.575 1.639 3.239 0 1.362-.448 2.354-1.337 2.976-.893.622-2.23.933-4.014.933h-2.149v6.55c0 1.808-.399 3.15-1.196 4.031-.799.88-1.865 1.32-3.205 1.32-1.316 0-2.378-.452-3.186-1.356-.809-.904-1.22-2.232-1.22-3.993Zm-15.143-14.439h15.143v-20.46l-15.143 20.46ZM195.961 133.563c0 3.851-.234 7.159-.703 9.929-.469 2.771-1.337 5.282-2.605 7.536-1.596 2.77-3.663 4.906-6.198 6.408-2.536 1.503-5.354 2.254-8.452 2.254-3.569 0-6.767-1.01-9.595-3.029-2.83-2.019-4.959-4.813-6.391-8.379-.728-1.948-1.263-4.103-1.603-6.462-.34-2.358-.51-4.913-.51-7.659 0-3.545.187-6.737.565-9.578.375-2.84.961-5.282 1.76-7.325 1.385-3.38 3.4-5.957 6.041-7.729 2.641-1.773 5.793-2.658 9.453-2.658 2.419 0 4.612.393 6.586 1.18a15.03 15.03 0 0 1 5.193 3.451c1.491 1.515 2.754 3.388 3.785 5.617 1.782 3.873 2.674 9.356 2.674 16.444Zm-9.65-.704c0-4.296-.258-7.81-.775-10.547-.517-2.734-1.385-4.801-2.605-6.198-1.22-1.397-2.911-2.095-5.071-2.095-3.098 0-5.253 1.562-6.461 4.684-1.211 3.121-1.814 7.934-1.814 14.436 0 4.414.259 8.028.775 10.846.517 2.818 1.385 4.947 2.605 6.392 1.22 1.445 2.876 2.165 4.966 2.165 2.161 0 3.849-.751 5.072-2.253 1.22-1.503 2.079-3.651 2.571-6.445.491-2.792.737-6.454.737-10.985ZM224.623 154.41v-6.549h-17.678c-2.23 0-3.904-.505-5.019-1.515-1.115-1.009-1.672-2.382-1.672-4.119 0-.445.081-.897.246-1.356a7.23 7.23 0 0 1 .739-1.445 27.5 27.5 0 0 1 1.022-1.462c.352-.469.787-1.045 1.304-1.724l18.663-24.967c1.22-1.644 2.225-2.835 3.012-3.574.787-.739 1.732-1.11 2.834-1.11 3.57 0 5.354 2.043 5.354 6.126v27.256h1.514c1.809 0 3.258.247 4.349.739 1.091.493 1.639 1.575 1.639 3.239 0 1.362-.445 2.354-1.337 2.976-.893.622-2.23.933-4.014.933h-2.149v6.55c0 1.808-.399 3.15-1.198 4.031-.799.88-1.866 1.32-3.205 1.32-1.316 0-2.378-.452-3.187-1.356-.808-.904-1.217-2.232-1.217-3.993Zm-15.14-14.439h15.142v-20.46l-15.142 20.46Z"
    fill="#262F5F"/>
  <path
    d="M176.215 289.844a5.894 5.894 0 0 1-8.339 0l-35.803-35.803-4.55-4.55a29.399 29.399 0 0 0 8.339-8.339l40.353 40.353a5.894 5.894 0 0 1 0 8.339Z"
    fill="#9C9C9C"/>
  <path
    d="m137.675 242.965 9.33 9.332a29.417 29.417 0 0 1-8.337 8.339l-4.779-4.782-4.55-4.55a29.35 29.35 0 0 0 8.336-8.339Z"
    fill="#5E5E5E"/>
  <path
    d="M146.974 223.537a35.465 35.465 0 0 0-.469-4.452c-1.402-8.277-5.662-15.583-11.734-20.86a35.436 35.436 0 0 0-23.333-8.724c-19.641 0-35.566 15.925-35.566 35.569 0 1.359.077 2.701.225 4.021a35.292 35.292 0 0 0 3.404 11.645 35.723 35.723 0 0 0 13.147 14.537 35.41 35.41 0 0 0 18.79 5.363 35.406 35.406 0 0 0 20.633-6.592 35.81 35.81 0 0 0 8.339-8.337 35.415 35.415 0 0 0 6.592-20.632 30.092 30.092 0 0 0-.028-1.538Zm-35.533 30.772a29.114 29.114 0 0 1-17.13-5.54 29.33 29.33 0 0 1-10.33-13.626 29.166 29.166 0 0 1-1.78-10.073c0-1.332.09-2.643.264-3.928 1.454-10.844 8.853-19.802 18.809-23.496a29.198 29.198 0 0 1 10.169-1.815 29.113 29.113 0 0 1 19.377 7.339c6.052 5.356 9.865 13.183 9.865 21.9a29.322 29.322 0 0 1-.988 7.562 29.057 29.057 0 0 1-3.828 8.52 29.347 29.347 0 0 1-10.86 9.825 29.224 29.224 0 0 1-13.568 3.332Z"
    fill="#B8B8B8"/>
  <path
    d="M89.3 228.285a2.73 2.73 0 0 1-2.73-2.732c0-6.772 2.639-13.14 7.428-17.929 4.789-4.789 11.157-7.428 17.929-7.428a2.733 2.733 0 0 1 2.732 2.732 2.73 2.73 0 0 1-2.732 2.73 19.763 19.763 0 0 0-14.068 5.827 19.763 19.763 0 0 0-5.828 14.068 2.734 2.734 0 0 1-2.731 2.732Z"
    fill="white"/>
</svg>
