<svg width="20" height="20" fill="none" xmlns="http://www.w3.org/2000/svg">
  <path
    d="m3.061 18.045.44-.607-.44.607ZM1.955 16.94l.607-.44-.607.44Zm16.09 0-.607-.44.607.44Zm-1.106 1.106-.44-.607.44.607Zm0-16.09-.44.607.44-.607Zm1.106 1.106-.607.44.607-.44ZM3.061 1.955l.44.607-.44-.607ZM1.955 3.06l.607.44-.607-.44Zm2.372 9.466a.75.75 0 0 0 1.346.66l-1.346-.66ZM6.46 9.88l.674.33-.674-.33Zm7.08.24.673.33-.673-.33Zm2.133-2.647a.75.75 0 0 0-1.346-.66l1.346.66ZM10 10l-.694.284L10 10Zm0 8.25c-1.892 0-3.25-.001-4.302-.115-1.038-.113-1.688-.328-2.196-.697l-.882 1.214c.807.586 1.75.848 2.916.974 1.152.125 2.606.124 4.464.124v-1.5ZM.25 10c0 1.858-.001 3.312.124 4.463.126 1.166.388 2.11.974 2.917l1.214-.882c-.37-.508-.585-1.158-.697-2.196-.114-1.052-.115-2.41-.115-4.302H.25Zm3.252 7.438a4.25 4.25 0 0 1-.94-.94l-1.214.882a5.75 5.75 0 0 0 1.272 1.272l.882-1.214ZM18.25 10c0 1.892-.001 3.25-.115 4.302-.113 1.038-.328 1.688-.697 2.196l1.214.882c.586-.807.848-1.75.974-2.916.125-1.152.124-2.606.124-4.464h-1.5ZM10 19.75c1.858 0 3.312.001 4.463-.124 1.166-.126 2.11-.388 2.917-.974l-.882-1.214c-.508.37-1.158.585-2.196.697-1.052.114-2.41.115-4.302.115v1.5Zm7.438-3.252c-.262.36-.58.678-.94.94l.882 1.214a5.749 5.749 0 0 0 1.272-1.272l-1.214-.882ZM10 1.75c1.892 0 3.25.001 4.302.115 1.038.112 1.688.328 2.196.697l.882-1.214C16.573.762 15.63.5 14.464.374 13.312.249 11.857.25 10 .25v1.5ZM19.75 10c0-1.858.001-3.312-.124-4.464-.126-1.165-.388-2.11-.974-2.916l-1.214.882c.37.508.585 1.158.697 2.196.114 1.052.115 2.41.115 4.302h1.5Zm-3.252-7.438c.36.262.678.58.94.94l1.214-.882a5.75 5.75 0 0 0-1.272-1.272l-.882 1.214ZM10 .25C8.142.25 6.688.249 5.536.374 4.371.5 3.426.762 2.62 1.348l.882 1.214c.508-.37 1.158-.585 2.196-.697C6.75 1.751 8.108 1.75 10 1.75V.25ZM1.75 10c0-1.892.001-3.25.115-4.302.112-1.038.328-1.688.697-2.196L1.348 2.62C.762 3.427.5 4.37.374 5.536.249 6.688.25 8.142.25 10h1.5Zm.87-8.652A5.75 5.75 0 0 0 1.348 2.62l1.214.882c.262-.36.58-.678.94-.94L2.62 1.348Zm3.053 11.84 1.46-2.978-1.346-.66-1.46 2.977 1.346.66Zm8.54-2.738 1.46-2.977-1.346-.66-1.46 2.977 1.346.66Zm-4.907-.166c.879 2.149 3.884 2.25 4.907.166l-1.347-.66c-.452.922-1.783.877-2.172-.074l-1.388.568Zm-2.172-.074c.452-.922 1.783-.877 2.172.074l1.388-.568c-.879-2.149-3.884-2.25-4.907-.166l1.347.66Z"
    fill="currentColor"/>
</svg>