<svg fill="none" xmlns="http://www.w3.org/2000/svg" viewBox="0 0 124 144">
  <path
    d="m34.624 117.75 2.817 4.828c12.675 21.729 38.025 21.729 50.7 0l2.817-4.828M7.745 100.495l.728 1.5a27.955 27.955 0 0 0 25.152 15.755h57.888a26.846 26.846 0 0 0 22.647-12.431c6.955-10.93 5.113-25.267-4.38-34.083l-.309-.287a27.35 27.35 0 0 1-8.527-23.433l.455-3.64c2.575-20.599-13.487-38.793-34.246-38.793h-11.99c-20.735 0-36.776 18.172-34.205 38.746l.559 4.47a25.709 25.709 0 0 1-8.075 22.082 25.709 25.709 0 0 0-5.697 30.114Z"
    stroke="currentColor" stroke-width="9.5" stroke-linecap="round"/>
</svg>
