<svg width="105" height="105" fill="none" xmlns="http://www.w3.org/2000/svg">
  <mask id="c" fill="white">
    <path
      d="M99.856 20.831h-6.654V6.738A6.74 6.74 0 0 0 86.465 0h-11.51c-.505 0-1.01.056-1.488.168-3.088.674-5.278 3.426-5.278 6.598v4.408c-1.347-.506-2.75-.983-4.154-1.348-23.61-6.345-47.865 7.665-54.21 31.248A43.598 43.598 0 0 0 8.31 52.5c0 5.924 1.179 11.791 3.509 17.21v5.811H5.137A5.14 5.14 0 0 0 0 80.66c0 1.376.533 2.667 1.516 3.65l19.174 19.175c.954.983 2.274 1.516 3.65 1.516a5.052 5.052 0 0 0 3.62-1.516l9.461-9.433c22.964 8.338 48.342-3.538 56.652-26.503A44.345 44.345 0 0 0 96.71 52.5c0-4.717-.757-9.377-2.245-13.869l9.039-9.04a5.169 5.169 0 0 0 0-7.271c-.982-.927-2.274-1.489-3.65-1.489ZM17.518 32.567C27.623 14.852 49.352 7.496 68.16 15.385v5.446h-4.828a30.514 30.514 0 0 0-2.106-.673c-14.71-3.959-30.262 2.498-37.786 15.75a33.243 33.243 0 0 0-4.323 18.782c-2.611-.169-5.25 1.207-6.485 3.51-1.291-8.844.449-17.856 4.884-25.633Zm31.104 48.289a5.199 5.199 0 0 0-.814-2.948 5.02 5.02 0 0 0-4.323-2.359h-6.681V61.456a6.74 6.74 0 0 0-6.738-6.738H23.02c-.056-.73-.084-1.46-.084-2.19.028-13.364 8.983-25.043 21.868-28.524a29.796 29.796 0 0 1 12.296-.646c-1.235 2.022-.898 4.605.758 6.29l19.174 19.174c.955.983 2.274 1.516 3.65 1.516h.056l.786-.084c.112-.028.197-.028.309-.056.056 0 .084 0 .14-.028.056.786.084 1.572.084 2.358 0 16.312-13.25 29.535-29.56 29.535-1.32 0-2.64-.084-3.959-.28.028-.31.084-.619.084-.927Zm-23.469 19.877a1.145 1.145 0 0 1-.842.337 1.51 1.51 0 0 1-.87-.365L4.267 81.529a1.203 1.203 0 0 1 0-1.712c.225-.225.533-.365.87-.365h8.619c1.095 0 1.965-.87 1.965-1.965v-16.06c0-1.319.926-2.47 2.218-2.75.196-.057.393-.057.617-.057h11.51a2.816 2.816 0 0 1 2.808 2.808v16.059c0 1.095.87 1.965 1.965 1.965h8.674c.421-.028.786.196 1.01.533.225.365.253.786.085 1.18-.056.112-.14.252-.225.336l-19.23 19.232Zm62.322-28.272C78.1 88.885 58.56 96.606 40.481 90.963l5.615-5.615c2.105.42 4.239.617 6.4.617 18.444.028 33.435-14.907 33.464-33.38 0-1.713-.113-3.398-.393-5.082l5.726-5.728c2.892 10.332 1.488 21.365-3.818 30.686Zm13.475-45.986a.766.766 0 0 1-.252.336l-9.882 9.883s-.028 0-.028.028l-9.292 9.293a1.143 1.143 0 0 1-.842.337c-.31 0-.618-.14-.843-.365L60.638 26.84a1.203 1.203 0 0 1 0-1.713c.224-.225.533-.365.87-.365h8.618c1.095 0 1.965-.87 1.965-1.965V6.738c0-1.32.927-2.47 2.218-2.751.197-.057.393-.057.618-.057h11.51a2.816 2.816 0 0 1 2.807 2.808v16.059c0 1.095.87 1.965 1.965 1.965h8.647c.421-.028.786.197 1.01.534.225.364.253.814.084 1.179Z"/>
    <path
      d="M50.531 67.267c0 1.095.87 1.966 1.965 1.966 1.095 0 1.966-.87 1.966-1.966v-2.442a7.131 7.131 0 0 0 6.54-7.72 7.156 7.156 0 0 0-7.13-6.57h-2.751a3.23 3.23 0 0 1 0-6.457h6.569c1.095 0 1.965-.87 1.965-1.966 0-1.095-.87-1.965-1.965-1.965h-3.228v-2.414c0-1.095-.87-1.966-1.966-1.966-1.094 0-1.965.87-1.965 1.966v2.442a7.131 7.131 0 0 0-6.54 7.72 7.156 7.156 0 0 0 7.13 6.57h2.751a3.229 3.229 0 0 1 3.228 3.229 3.247 3.247 0 0 1-3.228 3.228h-6.569c-1.095 0-1.965.87-1.965 1.966 0 1.095.87 1.965 1.965 1.965h3.228v2.414Z"/>
  </mask>
  <path
    d="M99.856 20.831h-6.654V6.738A6.74 6.74 0 0 0 86.465 0h-11.51c-.505 0-1.01.056-1.488.168-3.088.674-5.278 3.426-5.278 6.598v4.408c-1.347-.506-2.75-.983-4.154-1.348-23.61-6.345-47.865 7.665-54.21 31.248A43.598 43.598 0 0 0 8.31 52.5c0 5.924 1.179 11.791 3.509 17.21v5.811H5.137A5.14 5.14 0 0 0 0 80.66c0 1.376.533 2.667 1.516 3.65l19.174 19.175c.954.983 2.274 1.516 3.65 1.516a5.052 5.052 0 0 0 3.62-1.516l9.461-9.433c22.964 8.338 48.342-3.538 56.652-26.503A44.345 44.345 0 0 0 96.71 52.5c0-4.717-.757-9.377-2.245-13.869l9.039-9.04a5.169 5.169 0 0 0 0-7.271c-.982-.927-2.274-1.489-3.65-1.489ZM17.518 32.567C27.623 14.852 49.352 7.496 68.16 15.385v5.446h-4.828a30.514 30.514 0 0 0-2.106-.673c-14.71-3.959-30.262 2.498-37.786 15.75a33.243 33.243 0 0 0-4.323 18.782c-2.611-.169-5.25 1.207-6.485 3.51-1.291-8.844.449-17.856 4.884-25.633Zm31.104 48.289a5.199 5.199 0 0 0-.814-2.948 5.02 5.02 0 0 0-4.323-2.359h-6.681V61.456a6.74 6.74 0 0 0-6.738-6.738H23.02c-.056-.73-.084-1.46-.084-2.19.028-13.364 8.983-25.043 21.868-28.524a29.796 29.796 0 0 1 12.296-.646c-1.235 2.022-.898 4.605.758 6.29l19.174 19.174c.955.983 2.274 1.516 3.65 1.516h.056l.786-.084c.112-.028.197-.028.309-.056.056 0 .084 0 .14-.028.056.786.084 1.572.084 2.358 0 16.312-13.25 29.535-29.56 29.535-1.32 0-2.64-.084-3.959-.28.028-.31.084-.619.084-.927Zm-23.469 19.877a1.145 1.145 0 0 1-.842.337 1.51 1.51 0 0 1-.87-.365L4.267 81.529a1.203 1.203 0 0 1 0-1.712c.225-.225.533-.365.87-.365h8.619c1.095 0 1.965-.87 1.965-1.965v-16.06c0-1.319.926-2.47 2.218-2.75.196-.057.393-.057.617-.057h11.51a2.816 2.816 0 0 1 2.808 2.808v16.059c0 1.095.87 1.965 1.965 1.965h8.674c.421-.028.786.196 1.01.533.225.365.253.786.085 1.18-.056.112-.14.252-.225.336l-19.23 19.232Zm62.322-28.272C78.1 88.885 58.56 96.606 40.481 90.963l5.615-5.615c2.105.42 4.239.617 6.4.617 18.444.028 33.435-14.907 33.464-33.38 0-1.713-.113-3.398-.393-5.082l5.726-5.728c2.892 10.332 1.488 21.365-3.818 30.686Zm13.475-45.986a.766.766 0 0 1-.252.336l-9.882 9.883s-.028 0-.028.028l-9.292 9.293a1.143 1.143 0 0 1-.842.337c-.31 0-.618-.14-.843-.365L60.638 26.84a1.203 1.203 0 0 1 0-1.713c.224-.225.533-.365.87-.365h8.618c1.095 0 1.965-.87 1.965-1.965V6.738c0-1.32.927-2.47 2.218-2.751.197-.057.393-.057.618-.057h11.51a2.816 2.816 0 0 1 2.807 2.808v16.059c0 1.095.87 1.965 1.965 1.965h8.647c.421-.028.786.197 1.01.534.225.364.253.814.084 1.179Z"
    fill="url(#a)"/>
  <path
    d="M50.531 67.267c0 1.095.87 1.966 1.965 1.966 1.095 0 1.966-.87 1.966-1.966v-2.442a7.131 7.131 0 0 0 6.54-7.72 7.156 7.156 0 0 0-7.13-6.57h-2.751a3.23 3.23 0 0 1 0-6.457h6.569c1.095 0 1.965-.87 1.965-1.966 0-1.095-.87-1.965-1.965-1.965h-3.228v-2.414c0-1.095-.87-1.966-1.966-1.966-1.094 0-1.965.87-1.965 1.966v2.442a7.131 7.131 0 0 0-6.54 7.72 7.156 7.156 0 0 0 7.13 6.57h2.751a3.229 3.229 0 0 1 3.228 3.229 3.247 3.247 0 0 1-3.228 3.228h-6.569c-1.095 0-1.965.87-1.965 1.966 0 1.095.87 1.965 1.965 1.965h3.228v2.414Z"
    fill="url(#b)"/>
  <path
    d="M99.856 20.831h-6.654V6.738A6.74 6.74 0 0 0 86.465 0h-11.51c-.505 0-1.01.056-1.488.168-3.088.674-5.278 3.426-5.278 6.598v4.408c-1.347-.506-2.75-.983-4.154-1.348-23.61-6.345-47.865 7.665-54.21 31.248A43.598 43.598 0 0 0 8.31 52.5c0 5.924 1.179 11.791 3.509 17.21v5.811H5.137A5.14 5.14 0 0 0 0 80.66c0 1.376.533 2.667 1.516 3.65l19.174 19.175c.954.983 2.274 1.516 3.65 1.516a5.052 5.052 0 0 0 3.62-1.516l9.461-9.433c22.964 8.338 48.342-3.538 56.652-26.503A44.345 44.345 0 0 0 96.71 52.5c0-4.717-.757-9.377-2.245-13.869l9.039-9.04a5.169 5.169 0 0 0 0-7.271c-.982-.927-2.274-1.489-3.65-1.489ZM17.518 32.567C27.623 14.852 49.352 7.496 68.16 15.385v5.446h-4.828a30.514 30.514 0 0 0-2.106-.673c-14.71-3.959-30.262 2.498-37.786 15.75a33.243 33.243 0 0 0-4.323 18.782c-2.611-.169-5.25 1.207-6.485 3.51-1.291-8.844.449-17.856 4.884-25.633Zm31.104 48.289a5.199 5.199 0 0 0-.814-2.948 5.02 5.02 0 0 0-4.323-2.359h-6.681V61.456a6.74 6.74 0 0 0-6.738-6.738H23.02c-.056-.73-.084-1.46-.084-2.19.028-13.364 8.983-25.043 21.868-28.524a29.796 29.796 0 0 1 12.296-.646c-1.235 2.022-.898 4.605.758 6.29l19.174 19.174c.955.983 2.274 1.516 3.65 1.516h.056l.786-.084c.112-.028.197-.028.309-.056.056 0 .084 0 .14-.028.056.786.084 1.572.084 2.358 0 16.312-13.25 29.535-29.56 29.535-1.32 0-2.64-.084-3.959-.28.028-.31.084-.619.084-.927Zm-23.469 19.877a1.145 1.145 0 0 1-.842.337 1.51 1.51 0 0 1-.87-.365L4.267 81.529a1.203 1.203 0 0 1 0-1.712c.225-.225.533-.365.87-.365h8.619c1.095 0 1.965-.87 1.965-1.965v-16.06c0-1.319.926-2.47 2.218-2.75.196-.057.393-.057.617-.057h11.51a2.816 2.816 0 0 1 2.808 2.808v16.059c0 1.095.87 1.965 1.965 1.965h8.674c.421-.028.786.196 1.01.533.225.365.253.786.085 1.18-.056.112-.14.252-.225.336l-19.23 19.232Zm62.322-28.272C78.1 88.885 58.56 96.606 40.481 90.963l5.615-5.615c2.105.42 4.239.617 6.4.617 18.444.028 33.435-14.907 33.464-33.38 0-1.713-.113-3.398-.393-5.082l5.726-5.728c2.892 10.332 1.488 21.365-3.818 30.686Zm13.475-45.986a.766.766 0 0 1-.252.336l-9.882 9.883s-.028 0-.028.028l-9.292 9.293a1.143 1.143 0 0 1-.842.337c-.31 0-.618-.14-.843-.365L60.638 26.84a1.203 1.203 0 0 1 0-1.713c.224-.225.533-.365.87-.365h8.618c1.095 0 1.965-.87 1.965-1.965V6.738c0-1.32.927-2.47 2.218-2.751.197-.057.393-.057.618-.057h11.51a2.816 2.816 0 0 1 2.807 2.808v16.059c0 1.095.87 1.965 1.965 1.965h8.647c.421-.028.786.197 1.01.534.225.364.253.814.084 1.179Z"
    stroke="white" mask="url(#c)"/>
  <path
    d="M50.531 67.267c0 1.095.87 1.966 1.965 1.966 1.095 0 1.966-.87 1.966-1.966v-2.442a7.131 7.131 0 0 0 6.54-7.72 7.156 7.156 0 0 0-7.13-6.57h-2.751a3.23 3.23 0 0 1 0-6.457h6.569c1.095 0 1.965-.87 1.965-1.966 0-1.095-.87-1.965-1.965-1.965h-3.228v-2.414c0-1.095-.87-1.966-1.966-1.966-1.094 0-1.965.87-1.965 1.966v2.442a7.131 7.131 0 0 0-6.54 7.72 7.156 7.156 0 0 0 7.13 6.57h2.751a3.229 3.229 0 0 1 3.228 3.229 3.247 3.247 0 0 1-3.228 3.228h-6.569c-1.095 0-1.965.87-1.965 1.966 0 1.095.87 1.965 1.965 1.965h3.228v2.414Z"
    stroke="white" mask="url(#c)"/>
  <defs>
    <linearGradient id="a" x1="5.40441" y1="18.6667" x2="111.87" y2="53.035" gradientUnits="userSpaceOnUse">
      <stop stop-color="#194185"/>
      <stop offset="1" stop-color="#038AE4"/>
    </linearGradient>
    <linearGradient id="b" x1="5.40441" y1="18.6667" x2="111.87" y2="53.035" gradientUnits="userSpaceOnUse">
      <stop stop-color="#194185"/>
      <stop offset="1" stop-color="#038AE4"/>
    </linearGradient>
  </defs>
</svg>
