<svg width="22" height="23" fill="none" xmlns="http://www.w3.org/2000/svg">
  <path
    d="M11.75 8.25a.75.75 0 0 0-1.5 0h1.5Zm-3.296 6.607a.75.75 0 0 0 1.092 1.029l-1.092-1.03ZM1.531 2.664a.75.75 0 1 0 .938 1.172L1.53 2.664Zm3.438-.828A.75.75 0 1 0 4.03.664l.938 1.172Zm14.563 2a.75.75 0 1 0 .936-1.172l-.936 1.172ZM17.968.664a.75.75 0 0 0-.936 1.172l.936-1.172Zm-7.513 13.164-.545-.515.545.515ZM10.25 8.25v4.206h1.5V8.25h-1.5Zm-.704 7.636L11 14.342 9.91 13.313l-1.456 1.544 1.092 1.029ZM2.469 3.836l2.5-2L4.03.664l-2.5 2 .938 1.172Zm18-1.172-2.5-2-.938 1.172 2.5 2 .938-1.172Zm-.219 9.586A9.25 9.25 0 0 1 11 21.5V23c5.937 0 10.75-4.813 10.75-10.75h-1.5ZM11 21.5a9.25 9.25 0 0 1-9.25-9.25H.25C.25 18.187 5.063 23 11 23v-1.5Zm-9.25-9.25A9.25 9.25 0 0 1 11 3V1.5C5.063 1.5.25 6.313.25 12.25h1.5ZM11 3a9.25 9.25 0 0 1 9.25 9.25h1.5C21.75 6.313 16.937 1.5 11 1.5V3Zm-.75 9.456c0 .319-.122.625-.34.857l1.09 1.03a2.75 2.75 0 0 0 .75-1.887h-1.5Z"
    fill="currentColor"/>
</svg>