<svg width="105" height="105" fill="none" xmlns="http://www.w3.org/2000/svg">
  <mask id="d" fill="white">
    <path
      d="M94.01 80.126a10.312 10.312 0 0 0 2.486-6.72v-1.11c0-5.714-4.649-10.362-10.363-10.362-5.714 0-10.363 4.648-10.363 10.362v1.11c0 2.563.937 4.91 2.485 6.72a14.69 14.69 0 0 0-8.939 6.716 14.69 14.69 0 0 0-8.938-6.716 10.312 10.312 0 0 0 2.485-6.72v-1.11c0-5.714-4.649-10.362-10.363-10.362-5.714 0-10.363 4.648-10.363 10.362v1.11c0 2.563.937 4.91 2.485 6.72a14.69 14.69 0 0 0-8.938 6.716 14.69 14.69 0 0 0-8.939-6.716 10.311 10.311 0 0 0 2.485-6.72v-1.11c0-5.714-4.649-10.362-10.363-10.362-5.714 0-10.363 4.648-10.363 10.362v1.11c0 2.563.938 4.91 2.485 6.72C4.678 81.751 0 87.49 0 94.301v8.648A2.05 2.05 0 0 0 2.05 105H102.95a2.05 2.05 0 0 0 2.051-2.051v-8.647c0-6.812-4.678-12.551-10.99-14.176Zm-14.139-7.83a6.268 6.268 0 0 1 6.262-6.26 6.268 6.268 0 0 1 6.261 6.26v1.11a6.268 6.268 0 0 1-6.261 6.26 6.268 6.268 0 0 1-6.261-6.26v-1.11Zm-33.632 0a6.268 6.268 0 0 1 6.261-6.26 6.268 6.268 0 0 1 6.261 6.26v1.11a6.268 6.268 0 0 1-6.261 6.26 6.268 6.268 0 0 1-6.261-6.26v-1.11Zm-33.633 0a6.268 6.268 0 0 1 6.261-6.26 6.268 6.268 0 0 1 6.261 6.26v1.11a6.268 6.268 0 0 1-6.26 6.26 6.268 6.268 0 0 1-6.262-6.26v-1.11ZM4.102 94.301c0-5.807 4.724-10.533 10.533-10.533h8.464c5.808 0 10.534 4.726 10.534 10.534v6.596H4.102v-6.596Zm33.632 0c0-5.807 4.725-10.533 10.534-10.533h8.464c5.808 0 10.534 4.726 10.534 10.534v6.596H37.734v-6.596Zm63.164 6.597h-29.53v-6.596c0-5.808 4.724-10.534 10.533-10.534h8.464c5.808 0 10.533 4.726 10.533 10.534v6.596ZM15.86 41.136l-.018 11.386a2.05 2.05 0 0 0 3.35 1.59l11.584-9.481h12.816l7.331 9.175c.401.501 1.015.79 1.655.77a2.048 2.048 0 0 0 1.612-.853l6.539-9.093h13.577l11.532 9.48a2.05 2.05 0 0 0 3.353-1.584V41.103c6.365-4.089 10.272-11.18 10.272-18.788C99.463 10.01 89.453 0 77.148 0H27.852C15.547 0 5.537 10.01 5.537 22.315a22.364 22.364 0 0 0 10.324 18.82ZM27.853 4.102h49.296c10.043 0 18.213 8.17 18.213 18.213a18.266 18.266 0 0 1-9.233 15.85 2.049 2.049 0 0 0-1.038 1.782v8.238l-8.747-7.19a2.048 2.048 0 0 0-1.302-.466H59.678c-.66 0-1.28.318-1.665.853l-5.573 7.75L46.18 41.3a2.051 2.051 0 0 0-1.602-.77H30.044c-.474 0-.933.164-1.3.463l-8.793 7.199.013-8.21a2.049 2.049 0 0 0-1.043-1.79 18.256 18.256 0 0 1-9.282-15.876c0-10.042 8.17-18.213 18.213-18.213Z"/>
    <path
      d="M46.196 28.765a49.462 49.462 0 0 0 5.177 4.153 2.05 2.05 0 0 0 2.306 0 49.467 49.467 0 0 0 5.177-4.153c3.766-3.483 5.595-6.46 5.595-9.098 0-4.582-3.485-8.31-7.77-8.31-1.48 0-2.922.457-4.155 1.289a7.432 7.432 0 0 0-4.155-1.288c-4.285 0-7.77 3.726-7.77 8.309 0 2.638 1.83 5.614 5.595 9.098Zm2.175-13.306c.983 0 1.908.443 2.604 1.248a2.053 2.053 0 0 0 3.102 0c.697-.805 1.62-1.248 2.604-1.248 2.023 0 3.669 1.888 3.669 4.208 0 2.294-4.322 6.432-7.825 9.037-3.503-2.602-7.824-6.737-7.824-9.037.001-2.32 1.647-4.208 3.67-4.208Z"/>
  </mask>
  <path
    d="M94.01 80.126a10.312 10.312 0 0 0 2.486-6.72v-1.11c0-5.714-4.649-10.362-10.363-10.362-5.714 0-10.363 4.648-10.363 10.362v1.11c0 2.563.937 4.91 2.485 6.72a14.69 14.69 0 0 0-8.939 6.716 14.69 14.69 0 0 0-8.938-6.716 10.312 10.312 0 0 0 2.485-6.72v-1.11c0-5.714-4.649-10.362-10.363-10.362-5.714 0-10.363 4.648-10.363 10.362v1.11c0 2.563.937 4.91 2.485 6.72a14.69 14.69 0 0 0-8.938 6.716 14.69 14.69 0 0 0-8.939-6.716 10.311 10.311 0 0 0 2.485-6.72v-1.11c0-5.714-4.649-10.362-10.363-10.362-5.714 0-10.363 4.648-10.363 10.362v1.11c0 2.563.938 4.91 2.485 6.72C4.678 81.751 0 87.49 0 94.301v8.648A2.05 2.05 0 0 0 2.05 105H102.95a2.05 2.05 0 0 0 2.051-2.051v-8.647c0-6.812-4.678-12.551-10.99-14.176Zm-14.139-7.83a6.268 6.268 0 0 1 6.262-6.26 6.268 6.268 0 0 1 6.261 6.26v1.11a6.268 6.268 0 0 1-6.261 6.26 6.268 6.268 0 0 1-6.261-6.26v-1.11Zm-33.632 0a6.268 6.268 0 0 1 6.261-6.26 6.268 6.268 0 0 1 6.261 6.26v1.11a6.268 6.268 0 0 1-6.261 6.26 6.268 6.268 0 0 1-6.261-6.26v-1.11Zm-33.633 0a6.268 6.268 0 0 1 6.261-6.26 6.268 6.268 0 0 1 6.261 6.26v1.11a6.268 6.268 0 0 1-6.26 6.26 6.268 6.268 0 0 1-6.262-6.26v-1.11ZM4.102 94.301c0-5.807 4.724-10.533 10.533-10.533h8.464c5.808 0 10.534 4.726 10.534 10.534v6.596H4.102v-6.596Zm33.632 0c0-5.807 4.725-10.533 10.534-10.533h8.464c5.808 0 10.534 4.726 10.534 10.534v6.596H37.734v-6.596Zm63.164 6.597h-29.53v-6.596c0-5.808 4.724-10.534 10.533-10.534h8.464c5.808 0 10.533 4.726 10.533 10.534v6.596Z"
    fill="url(#a)"/>
  <path
    d="m15.86 41.136-.018 11.386a2.05 2.05 0 0 0 3.35 1.59l11.584-9.481h12.816l7.331 9.175c.401.501 1.015.79 1.655.77a2.048 2.048 0 0 0 1.612-.853l6.539-9.093h13.577l11.532 9.48a2.05 2.05 0 0 0 3.353-1.584V41.103c6.365-4.089 10.272-11.18 10.272-18.788C99.463 10.01 89.453 0 77.148 0H27.852C15.547 0 5.537 10.01 5.537 22.315a22.364 22.364 0 0 0 10.324 18.82ZM27.853 4.102h49.296c10.043 0 18.213 8.17 18.213 18.213a18.266 18.266 0 0 1-9.233 15.85 2.049 2.049 0 0 0-1.038 1.782v8.238l-8.747-7.19a2.048 2.048 0 0 0-1.302-.466H59.678c-.66 0-1.28.318-1.665.853l-5.573 7.75L46.18 41.3a2.051 2.051 0 0 0-1.602-.77H30.044c-.474 0-.933.164-1.3.463l-8.793 7.199.013-8.21a2.049 2.049 0 0 0-1.043-1.79 18.256 18.256 0 0 1-9.282-15.876c0-10.042 8.17-18.213 18.213-18.213Z"
    fill="url(#b)"/>
  <path
    d="M46.196 28.765a49.462 49.462 0 0 0 5.177 4.153 2.05 2.05 0 0 0 2.306 0 49.467 49.467 0 0 0 5.177-4.153c3.766-3.483 5.595-6.46 5.595-9.098 0-4.582-3.485-8.31-7.77-8.31-1.48 0-2.922.457-4.155 1.289a7.432 7.432 0 0 0-4.155-1.288c-4.285 0-7.77 3.726-7.77 8.309 0 2.638 1.83 5.614 5.595 9.098Zm2.175-13.306c.983 0 1.908.443 2.604 1.248a2.053 2.053 0 0 0 3.102 0c.697-.805 1.62-1.248 2.604-1.248 2.023 0 3.669 1.888 3.669 4.208 0 2.294-4.322 6.432-7.825 9.037-3.503-2.602-7.824-6.737-7.824-9.037.001-2.32 1.647-4.208 3.67-4.208Z"
    fill="url(#c)"/>
  <path
    d="M94.01 80.126a10.312 10.312 0 0 0 2.486-6.72v-1.11c0-5.714-4.649-10.362-10.363-10.362-5.714 0-10.363 4.648-10.363 10.362v1.11c0 2.563.937 4.91 2.485 6.72a14.69 14.69 0 0 0-8.939 6.716 14.69 14.69 0 0 0-8.938-6.716 10.312 10.312 0 0 0 2.485-6.72v-1.11c0-5.714-4.649-10.362-10.363-10.362-5.714 0-10.363 4.648-10.363 10.362v1.11c0 2.563.937 4.91 2.485 6.72a14.69 14.69 0 0 0-8.938 6.716 14.69 14.69 0 0 0-8.939-6.716 10.311 10.311 0 0 0 2.485-6.72v-1.11c0-5.714-4.649-10.362-10.363-10.362-5.714 0-10.363 4.648-10.363 10.362v1.11c0 2.563.938 4.91 2.485 6.72C4.678 81.751 0 87.49 0 94.301v8.648A2.05 2.05 0 0 0 2.05 105H102.95a2.05 2.05 0 0 0 2.051-2.051v-8.647c0-6.812-4.678-12.551-10.99-14.176Zm-14.139-7.83a6.268 6.268 0 0 1 6.262-6.26 6.268 6.268 0 0 1 6.261 6.26v1.11a6.268 6.268 0 0 1-6.261 6.26 6.268 6.268 0 0 1-6.261-6.26v-1.11Zm-33.632 0a6.268 6.268 0 0 1 6.261-6.26 6.268 6.268 0 0 1 6.261 6.26v1.11a6.268 6.268 0 0 1-6.261 6.26 6.268 6.268 0 0 1-6.261-6.26v-1.11Zm-33.633 0a6.268 6.268 0 0 1 6.261-6.26 6.268 6.268 0 0 1 6.261 6.26v1.11a6.268 6.268 0 0 1-6.26 6.26 6.268 6.268 0 0 1-6.262-6.26v-1.11ZM4.102 94.301c0-5.807 4.724-10.533 10.533-10.533h8.464c5.808 0 10.534 4.726 10.534 10.534v6.596H4.102v-6.596Zm33.632 0c0-5.807 4.725-10.533 10.534-10.533h8.464c5.808 0 10.534 4.726 10.534 10.534v6.596H37.734v-6.596Zm63.164 6.597h-29.53v-6.596c0-5.808 4.724-10.534 10.533-10.534h8.464c5.808 0 10.533 4.726 10.533 10.534v6.596ZM15.86 41.136l-.018 11.386a2.05 2.05 0 0 0 3.35 1.59l11.584-9.481h12.816l7.331 9.175c.401.501 1.015.79 1.655.77a2.048 2.048 0 0 0 1.612-.853l6.539-9.093h13.577l11.532 9.48a2.05 2.05 0 0 0 3.353-1.584V41.103c6.365-4.089 10.272-11.18 10.272-18.788C99.463 10.01 89.453 0 77.148 0H27.852C15.547 0 5.537 10.01 5.537 22.315a22.364 22.364 0 0 0 10.324 18.82ZM27.853 4.102h49.296c10.043 0 18.213 8.17 18.213 18.213a18.266 18.266 0 0 1-9.233 15.85 2.049 2.049 0 0 0-1.038 1.782v8.238l-8.747-7.19a2.048 2.048 0 0 0-1.302-.466H59.678c-.66 0-1.28.318-1.665.853l-5.573 7.75L46.18 41.3a2.051 2.051 0 0 0-1.602-.77H30.044c-.474 0-.933.164-1.3.463l-8.793 7.199.013-8.21a2.049 2.049 0 0 0-1.043-1.79 18.256 18.256 0 0 1-9.282-15.876c0-10.042 8.17-18.213 18.213-18.213Z"
    stroke="white" mask="url(#d)"/>
  <path
    d="M46.196 28.765a49.462 49.462 0 0 0 5.177 4.153 2.05 2.05 0 0 0 2.306 0 49.467 49.467 0 0 0 5.177-4.153c3.766-3.483 5.595-6.46 5.595-9.098 0-4.582-3.485-8.31-7.77-8.31-1.48 0-2.922.457-4.155 1.289a7.432 7.432 0 0 0-4.155-1.288c-4.285 0-7.77 3.726-7.77 8.309 0 2.638 1.83 5.614 5.595 9.098Zm2.175-13.306c.983 0 1.908.443 2.604 1.248a2.053 2.053 0 0 0 3.102 0c.697-.805 1.62-1.248 2.604-1.248 2.023 0 3.669 1.888 3.669 4.208 0 2.294-4.322 6.432-7.825 9.037-3.503-2.602-7.824-6.737-7.824-9.037.001-2.32 1.647-4.208 3.67-4.208Z"
    stroke="white" mask="url(#d)"/>
  <defs>
    <linearGradient id="a" x1="5.40441" y1="18.6667" x2="111.87" y2="53.035" gradientUnits="userSpaceOnUse">
      <stop stop-color="#194185"/>
      <stop offset="1" stop-color="#038AE4"/>
    </linearGradient>
    <linearGradient id="b" x1="5.40441" y1="18.6667" x2="111.87" y2="53.035" gradientUnits="userSpaceOnUse">
      <stop stop-color="#194185"/>
      <stop offset="1" stop-color="#038AE4"/>
    </linearGradient>
    <linearGradient id="c" x1="5.40441" y1="18.6667" x2="111.87" y2="53.035" gradientUnits="userSpaceOnUse">
      <stop stop-color="#194185"/>
      <stop offset="1" stop-color="#038AE4"/>
    </linearGradient>
  </defs>
</svg>
