<svg width="105" height="105" fill="none" xmlns="http://www.w3.org/2000/svg">
  <path
    d="M52.5 63.47a10.97 10.97 0 1 0-10.97-10.968A10.981 10.981 0 0 0 52.5 63.47Zm0-19.068a8.098 8.098 0 1 1-8.098 8.1 8.108 8.108 0 0 1 8.098-8.1Z"
    fill="url(#a)"/>
  <path
    d="M52.5 17.127a8.563 8.563 0 1 0-8.563-8.564 8.573 8.573 0 0 0 8.563 8.563Zm0-14.253a5.692 5.692 0 1 1-5.692 5.692A5.699 5.699 0 0 1 52.5 2.874Z"
    fill="url(#b)"/>
  <path
    d="M52.5 87.874a8.563 8.563 0 1 0 8.563 8.563 8.573 8.573 0 0 0-8.563-8.563Zm0 14.257a5.688 5.688 0 0 1-5.259-3.513 5.692 5.692 0 1 1 10.951-2.179 5.698 5.698 0 0 1-5.692 5.692Z"
    fill="url(#c)"/>
  <path
    d="M83.569 29.991a8.556 8.556 0 1 0-.015-17.111 8.556 8.556 0 0 0 .014 17.111Zm-4.026-12.584a5.693 5.693 0 1 1 8.052 8.05 5.693 5.693 0 0 1-8.052-8.05Z"
    fill="url(#d)"/>
  <path
    d="M21.431 75.005a8.561 8.561 0 1 0 6.056 2.508 8.507 8.507 0 0 0-6.055-2.508Zm4.026 12.588a5.693 5.693 0 1 1-8.053-8.051 5.693 5.693 0 0 1 8.053 8.051Z"
    fill="url(#e)"/>
  <path
    d="M96.437 43.937A8.563 8.563 0 1 0 105 52.503a8.574 8.574 0 0 0-8.563-8.566Zm0 14.255a5.692 5.692 0 1 1 5.692-5.69 5.697 5.697 0 0 1-5.692 5.69Z"
    fill="url(#f)"/>
  <path
    d="M17.127 52.502a8.563 8.563 0 1 0-8.564 8.561 8.573 8.573 0 0 0 8.563-8.56Zm-8.564 5.69a5.692 5.692 0 1 1 5.692-5.69 5.698 5.698 0 0 1-5.692 5.69Z"
    fill="url(#g)"/>
  <path
    d="M77.513 77.513a8.563 8.563 0 1 0 12.11 0 8.505 8.505 0 0 0-12.11 0Zm10.08 10.08a5.693 5.693 0 1 1-8.053-8.051 5.693 5.693 0 0 1 8.053 8.051Z"
    fill="url(#h)"/>
  <path
    d="M21.431 29.996a8.565 8.565 0 1 0-6.054-2.509 8.504 8.504 0 0 0 6.054 2.509Zm-4.024-12.589a5.693 5.693 0 1 1 0 8.05 5.675 5.675 0 0 1 0-8.05Z"
    fill="url(#i)"/>
  <path
    d="M75.413 58.783a1.433 1.433 0 0 0 2.03 0l5.267-5.268a1.433 1.433 0 0 0 0-2.03l-5.268-5.268a1.436 1.436 0 0 0-2.029 2.03l2.83 2.83h-8.285a17.449 17.449 0 0 0-4.102-9.902l5.845-5.845v3.965a1.435 1.435 0 1 0 2.871 0v-7.449a1.436 1.436 0 0 0-1.435-1.435H65.69a1.436 1.436 0 0 0 0 2.87h4.003l-5.864 5.864a17.428 17.428 0 0 0-9.895-4.101V26.77l2.805 2.805a1.435 1.435 0 1 0 2.03-2.03l-5.268-5.269a1.436 1.436 0 0 0-2.03 0l-5.268 5.268a1.436 1.436 0 1 0 2.03 2.03l2.83-2.83v8.297a17.436 17.436 0 0 0-9.908 4.116l-5.875-5.875h4.003a1.435 1.435 0 1 0 0-2.871h-7.45a1.437 1.437 0 0 0-1.436 1.435v7.45a1.436 1.436 0 0 0 2.871 0V35.33l5.86 5.859a17.443 17.443 0 0 0-4.087 9.889h-8.31l2.83-2.83a1.436 1.436 0 0 0-2.03-2.03l-5.268 5.267a1.433 1.433 0 0 0 0 2.03l5.267 5.268a1.437 1.437 0 0 0 2.352-1.564 1.436 1.436 0 0 0-.321-.466l-2.805-2.804h8.285a17.44 17.44 0 0 0 4.102 9.881l-5.875 5.876v-4.002a1.435 1.435 0 1 0-2.871 0v7.45a1.436 1.436 0 0 0 1.435 1.435h7.45a1.436 1.436 0 0 0 0-2.87h-3.966l5.858-5.859a17.44 17.44 0 0 0 9.89 4.102v8.293l-2.83-2.83a1.435 1.435 0 1 0-2.03 2.03l5.267 5.269a1.434 1.434 0 0 0 2.03 0l5.268-5.268a1.436 1.436 0 0 0-2.03-2.03l-2.805 2.804v-8.271a17.43 17.43 0 0 0 9.876-4.085l5.847 5.846H65.69a1.436 1.436 0 0 0 0 2.871h7.45a1.436 1.436 0 0 0 1.435-1.435v-7.452a1.436 1.436 0 0 0-2.87 0v4.002l-5.863-5.863a17.442 17.442 0 0 0 4.116-9.894h8.259l-2.805 2.804a1.434 1.434 0 0 0 0 2.03ZM52.5 37.839a14.616 14.616 0 0 1 10.353 4.291l.01.013.01.008a14.61 14.61 0 0 1 4.283 10.27c0 .03-.009.059-.009.089s.007.053.009.082a14.616 14.616 0 0 1-4.299 10.273l-.012.009v.005A14.658 14.658 0 1 1 52.5 37.839Z"
    fill="url(#j)"/>
  <defs>
    <linearGradient id="a" x1="5.40441" y1="18.6667" x2="111.87" y2="53.035" gradientUnits="userSpaceOnUse">
      <stop stop-color="#194185"/>
      <stop offset="1" stop-color="#038AE4"/>
    </linearGradient>
    <linearGradient id="b" x1="5.40441" y1="18.6667" x2="111.87" y2="53.035" gradientUnits="userSpaceOnUse">
      <stop stop-color="#194185"/>
      <stop offset="1" stop-color="#038AE4"/>
    </linearGradient>
    <linearGradient id="c" x1="5.40441" y1="18.6667" x2="111.87" y2="53.035" gradientUnits="userSpaceOnUse">
      <stop stop-color="#194185"/>
      <stop offset="1" stop-color="#038AE4"/>
    </linearGradient>
    <linearGradient id="d" x1="5.40441" y1="18.6667" x2="111.87" y2="53.035" gradientUnits="userSpaceOnUse">
      <stop stop-color="#194185"/>
      <stop offset="1" stop-color="#038AE4"/>
    </linearGradient>
    <linearGradient id="e" x1="5.40441" y1="18.6667" x2="111.87" y2="53.035" gradientUnits="userSpaceOnUse">
      <stop stop-color="#194185"/>
      <stop offset="1" stop-color="#038AE4"/>
    </linearGradient>
    <linearGradient id="f" x1="5.40441" y1="18.6667" x2="111.87" y2="53.035" gradientUnits="userSpaceOnUse">
      <stop stop-color="#194185"/>
      <stop offset="1" stop-color="#038AE4"/>
    </linearGradient>
    <linearGradient id="g" x1="5.40441" y1="18.6667" x2="111.87" y2="53.035" gradientUnits="userSpaceOnUse">
      <stop stop-color="#194185"/>
      <stop offset="1" stop-color="#038AE4"/>
    </linearGradient>
    <linearGradient id="h" x1="5.40441" y1="18.6667" x2="111.87" y2="53.035" gradientUnits="userSpaceOnUse">
      <stop stop-color="#194185"/>
      <stop offset="1" stop-color="#038AE4"/>
    </linearGradient>
    <linearGradient id="i" x1="5.40441" y1="18.6667" x2="111.87" y2="53.035" gradientUnits="userSpaceOnUse">
      <stop stop-color="#194185"/>
      <stop offset="1" stop-color="#038AE4"/>
    </linearGradient>
    <linearGradient id="j" x1="5.40441" y1="18.6667" x2="111.87" y2="53.035" gradientUnits="userSpaceOnUse">
      <stop stop-color="#194185"/>
      <stop offset="1" stop-color="#038AE4"/>
    </linearGradient>
  </defs>
</svg>
