<svg width="20" height="20" fill="none" xmlns="http://www.w3.org/2000/svg">
  <path
    d="M9.25 17a.75.75 0 0 0 1.5 0h-1.5Zm1.5-14a.75.75 0 0 0-1.5 0h1.5Zm1.688 3.452a.75.75 0 1 0 1.299-.75l-1.3.75Zm.274-1.026.65-.375-.65.375ZM9.13 9.68l.259-.704-.259.704Zm1.74.64.259-.704-.259.704Zm-3.582 4.254-.649.375.65-.375Zm.274-1.026a.75.75 0 1 0-1.299.75l1.3-.75Zm3.766 2.108-.375-.65.375.65ZM8.672 4.344l.375.65-.375-.65Zm-5.61 13.701.44-.607-.44.607ZM1.954 16.94l.607-.44-.607.44Zm16.09 0-.607-.44.607.44Zm-1.106 1.106-.44-.607.44.607Zm0-16.09-.44.607.44-.607Zm1.106 1.106-.607.44.607-.44ZM3.061 1.955l.44.607-.44-.607ZM1.955 3.06l.607.44-.607-.44Zm11.782 2.64-.376-.65-1.299.75.376.65 1.299-.75ZM7.938 14.2l-.376-.65-1.299.75.376.65 1.299-.75Zm2.673-3.175c1.756.646 1.962 3.047.342 3.983l.75 1.299c2.722-1.572 2.376-5.605-.574-6.69l-.518 1.408Zm-2.314-7.33c-2.722 1.572-2.376 5.605.574 6.69l.518-1.408C7.633 8.33 7.427 5.93 9.047 4.993l-.75-1.299ZM10 18.25c-1.892 0-3.25-.001-4.302-.115-1.038-.113-1.688-.328-2.196-.697l-.882 1.214c.807.586 1.75.848 2.916.974 1.152.125 2.606.124 4.464.124v-1.5ZM.25 10c0 1.858-.001 3.312.124 4.463.126 1.166.388 2.11.974 2.917l1.214-.882c-.37-.508-.585-1.158-.697-2.196-.114-1.052-.115-2.41-.115-4.302H.25Zm3.252 7.438a4.25 4.25 0 0 1-.94-.94l-1.214.882a5.75 5.75 0 0 0 1.272 1.272l.882-1.214ZM18.25 10c0 1.892-.001 3.25-.115 4.302-.113 1.038-.328 1.688-.697 2.196l1.214.882c.586-.807.848-1.75.974-2.916.125-1.152.124-2.606.124-4.464h-1.5ZM10 19.75c1.858 0 3.312.001 4.463-.124 1.166-.126 2.11-.388 2.917-.974l-.882-1.214c-.508.37-1.158.585-2.196.697-1.052.114-2.41.115-4.302.115v1.5Zm7.438-3.252c-.262.36-.58.678-.94.94l.882 1.214a5.749 5.749 0 0 0 1.272-1.272l-1.214-.882ZM10 1.75c1.892 0 3.25.001 4.302.115 1.038.112 1.688.328 2.196.697l.882-1.214C16.573.762 15.63.5 14.464.374 13.312.249 11.857.25 10 .25v1.5ZM19.75 10c0-1.858.001-3.312-.124-4.464-.126-1.165-.388-2.11-.974-2.916l-1.214.882c.37.508.585 1.158.697 2.196.114 1.052.115 2.41.115 4.302h1.5Zm-3.252-7.438c.36.262.678.58.94.94l1.214-.882a5.75 5.75 0 0 0-1.272-1.272l-.882 1.214ZM10 .25C8.142.25 6.688.249 5.536.374 4.371.5 3.426.762 2.62 1.348l.882 1.214c.508-.37 1.158-.585 2.196-.697C6.75 1.751 8.108 1.75 10 1.75V.25ZM1.75 10c0-1.892.001-3.25.115-4.302.112-1.038.328-1.688.697-2.196L1.348 2.62C.762 3.427.5 4.37.374 5.536.249 6.688.25 8.142.25 10h1.5Zm.87-8.652A5.75 5.75 0 0 0 1.348 2.62l1.214.882c.262-.36.58-.678.94-.94L2.62 1.348Zm10.741 3.703a3.707 3.707 0 0 0-3.399-1.85l.076 1.499c.803-.04 1.596.36 2.024 1.101l1.3-.75Zm-3.399-1.85c-.569.03-1.14.19-1.665.493l.75 1.3c.315-.182.653-.277.99-.294l-.075-1.498Zm.788.75V3h-1.5v.951h1.5Zm0 6.049V3.951h-1.5V10h1.5Zm-1.879.384.87.32.518-1.408-.87-.32-.518 1.408Zm.87.32.87.32.518-1.408-.87-.32-.518 1.408ZM10.75 17v-.951h-1.5V17h1.5Zm0-.951V10h-1.5v6.049h1.5Zm.203-1.042a2.194 2.194 0 0 1-.99.293l.075 1.498c.569-.028 1.14-.19 1.665-.492l-.75-1.3Zm-.99.293a2.207 2.207 0 0 1-2.025-1.101l-1.299.75a3.707 3.707 0 0 0 3.399 1.85L9.962 15.3Z"
    fill="currentColor"/>
</svg>