<svg width="18" height="18" fill="none" xmlns="http://www.w3.org/2000/svg">
  <path
    d="M1 4c0-.932 0-1.398.152-1.765a2 2 0 0 1 1.083-1.083C2.602 1 3.068 1 4 1c.932 0 1.398 0 1.765.152a2 2 0 0 1 1.083 1.083C7 2.602 7 3.068 7 4c0 .932 0 1.398-.152 1.765a2 2 0 0 1-1.083 1.083C5.398 7 4.932 7 4 7c-.932 0-1.398 0-1.765-.152a2 2 0 0 1-1.083-1.083C1 5.398 1 4.932 1 4ZM11 4c0-.932 0-1.398.152-1.765a2 2 0 0 1 1.083-1.083C12.602 1 13.068 1 14 1c.932 0 1.398 0 1.765.152a2 2 0 0 1 1.083 1.083C17 2.602 17 3.068 17 4c0 .932 0 1.398-.152 1.765a2 2 0 0 1-1.083 1.083C15.398 7 14.932 7 14 7c-.932 0-1.398 0-1.765-.152a2 2 0 0 1-1.083-1.083C11 5.398 11 4.932 11 4ZM1 14c0-.932 0-1.398.152-1.765a2 2 0 0 1 1.083-1.083C2.602 11 3.068 11 4 11c.932 0 1.398 0 1.765.152a2 2 0 0 1 1.083 1.083C7 12.602 7 13.068 7 14c0 .932 0 1.398-.152 1.765a2 2 0 0 1-1.083 1.083C5.398 17 4.932 17 4 17c-.932 0-1.398 0-1.765-.152a2 2 0 0 1-1.083-1.083C1 15.398 1 14.932 1 14ZM11 14c0-.932 0-1.398.152-1.765a2 2 0 0 1 1.083-1.083C12.602 11 13.068 11 14 11c.932 0 1.398 0 1.765.152a2 2 0 0 1 1.083 1.083C17 12.602 17 13.068 17 14c0 .932 0 1.398-.152 1.765a2 2 0 0 1-1.083 1.083C15.398 17 14.932 17 14 17c-.932 0-1.398 0-1.765-.152a2 2 0 0 1-1.083-1.083C11 15.398 11 14.932 11 14Z"
    stroke="currentColor" stroke-width="1.5"/>
</svg>