<svg width="20" height="20" fill="none" xmlns="http://www.w3.org/2000/svg">
  <path
    d="M8 19v-.75.75Zm-1 0v.75V19Zm-6-6h.75H1Zm0-6H.25 1Zm6-6V.25 1Zm1 0v.75V1ZM1.062 5.218.32 5.1l.74.117Zm4.156-4.156.117.74-.117-.74Zm0 17.876-.117.741.117-.74Zm-4.156-4.156L.32 14.9l.74-.117ZM11.45 18.6a.75.75 0 0 0-.9-1.2l.9 1.2Zm-.9-16a.75.75 0 1 0 .9-1.2l-.9 1.2ZM5 9.25a.75.75 0 1 0 0 1.5v-1.5ZM18 10v.75V10Zm-2.534-4.588a.75.75 0 0 0-.932 1.176l.932-1.176Zm1.297 1.986.466-.588-.466.588Zm0 5.204.466.588-.466-.588Zm-2.229.81a.75.75 0 0 0 .932 1.176l-.932-1.176ZM18.98 9.75l.74-.118-.74.118Zm0 .502.74.118-.74-.118ZM19 10h.75H19ZM8 18.25H7v1.5h1v-1.5ZM1.75 13V7H.25v6h1.5ZM7 1.75h1V.25H7v1.5ZM1.75 7c0-.958.002-1.35.052-1.665L.321 5.101C.248 5.562.25 6.1.25 7h1.5ZM7 .25c-.9 0-1.438-.002-1.9.07l.235 1.482c.316-.05.707-.052 1.665-.052V.25ZM1.802 5.335a4.25 4.25 0 0 1 3.533-3.533L5.101.321A5.75 5.75 0 0 0 .32 5.1l1.481.234ZM7 18.25c-.958 0-1.35-.002-1.665-.052l-.234 1.481c.461.073.999.071 1.899.071v-1.5ZM.25 13c0 .9-.002 1.438.07 1.9l1.482-.235c-.05-.316-.052-.707-.052-1.665H.25Zm5.085 5.198a4.25 4.25 0 0 1-3.533-3.533L.321 14.9a5.75 5.75 0 0 0 4.78 4.78l.234-1.482ZM8 19.75c1.294 0 2.49-.428 3.45-1.15l-.9-1.2c-.71.534-1.592.85-2.55.85v1.5Zm0-18c.958 0 1.84.316 2.55.85l.9-1.2A5.728 5.728 0 0 0 8 .25v1.5Zm-3 9h13v-1.5H5v1.5Zm9.534-4.162 1.763 1.398.932-1.176-1.763-1.398-.932 1.176Zm1.763 5.426-1.763 1.398.932 1.176 1.763-1.398-.932-1.175Zm0-4.028c.717.568 1.204.956 1.532 1.282.324.323.393.493.41.6l1.482-.237c-.092-.573-.428-1.021-.834-1.425-.402-.401-.97-.85-1.658-1.396l-.932 1.176Zm.932 5.204c.689-.546 1.256-.995 1.659-1.396.405-.404.741-.852.833-1.425l-1.482-.236c-.017.106-.086.276-.41.599-.328.326-.815.714-1.532 1.283l.932 1.175Zm1.01-3.323a.85.85 0 0 1 .011.133h1.5c0-.123-.01-.247-.03-.369l-1.48.236Zm.011.133a.85.85 0 0 1-.01.133l1.48.236c.02-.122.03-.246.03-.369h-1.5Zm-.25.75h1v-1.5h-1v1.5Z"
    fill="currentColor"/>
</svg>