<svg fill="none" xmlns="http://www.w3.org/2000/svg" viewBox="0 0 142 142">
  <path fill-rule="evenodd" clip-rule="evenodd" d="M120.421 113.217C130.137 101.855 136 87.12 136 71c0-35.898-29.101-65-65-65C39.82 6 13.76 27.962 7.458 57.262c.494.6 1.093 1.318 1.788 2.141a324.78 324.78 0 0 0 9.695 10.939c8.229 8.886 19.554 20.172 32.084 30.019 12.628 9.925 25.997 17.998 38.33 21.029 11.939 2.934 22.447 1.11 31.066-8.173Zm4.482 3.991C83.104 162.483 1.096 59.038 1.038 58.86 6.798 25.432 35.928 0 71 0c39.212 0 71 31.788 71 71 0 17.648-6.441 33.789-17.097 46.208Z" fill="#0048C1"/>
  <path d="M82.26 56.325c0-13.384 4.06-25.82 11.016-36.143 0 0-71.72 7.154-92.807 58.977l.003.017c.026.04.147.223.366.53 3.664 5.16 39.007 63.126 115.942 45.559a71.534 71.534 0 0 0 8.123-8.057C100.028 108.17 82.26 84.323 82.26 56.325Z" fill="#64B6EC"/>
  <path d="M83.026 46.34a64.384 64.384 0 0 1 10.25-26.158S21.556 27.336.47 79.159l.002.017c.027.04.147.223.366.531 1.35 1.901 7.004 10.975 17.456 20.796 7.19-29.81 33.186-52.283 64.732-54.162Z" fill="#4B9FDB"/>
  <path d="M76.323 130.782c-22.38-22.039-28.654-56.973-13.116-86.096 7.08-13.27 17.685-23.453 30.043-30.008 0 0-68.737 12.103-92.78 64.482 1.515 13.238 6.67 25.369 14.44 35.368.152.111 22.384 16.281 61.413 16.254Z" fill="#4B9FDB"/>
  <path d="M59.933 51.682a73.57 73.57 0 0 1 3.274-6.996c7.08-13.27 17.685-23.453 30.043-30.008 0 0-68.737 12.103-92.78 64.482 1.515 13.238 6.67 25.369 14.44 35.368.021.016.503.366 1.424.951.687-28.764 18.482-53.29 43.6-63.797Z" fill="#3188CA"/>
  <path d="M71.02 101.94c-6.191-9.112-9.18-19.456-9.219-29.702 0 0-39 6.952-40.462 49.497l41.717 19.82A71.85 71.85 0 0 0 71 142c17.446 0 33.419-6.296 45.78-16.735-17.616.536-35.121-7.667-45.76-23.325Z" fill="#A1DDFB"/>
  <path d="M21.343 121.737c11.162-13.93 27.464-23.563 46.032-26.02a52.994 52.994 0 0 1-5.574-23.48s-39 6.953-40.462 49.498l.004.002Z" fill="#7DCFFF"/>
  <path d="M46.983 99.704c.742-10.991 4.766-20.979 11.05-29.07 0 0-38.56 10.405-36.694 51.101 11.024 10.793 25.55 18.02 41.717 19.82-10.848-10.532-17.172-25.584-16.073-41.851Z" fill="#7DCFFF"/>
  <path d="M21.342 121.738a71.257 71.257 0 0 1 25.548-20.057c.02-.657.048-1.316.093-1.977.742-10.991 4.766-20.979 11.05-29.07 0 0-38.56 10.405-36.694 51.101l.003.003Z" fill="#64B6EC"/>
  <path d="M128.41 14.976c-1.109 3.791-29.12 2.497-29.12 8.043 0 5.547 20.8 11.094 15.53 16.919-5.269 5.824-23.296-15.81-72.664 3.05C19.36 51.7 5.976 70.026.466 79.168A71.54 71.54 0 0 1 0 71c0-4.14.355-8.198 1.037-12.142 6.06-10.276 20.72-29.931 49.994-43.881C66.538 7.588 81.614 4.454 94.283 3.907c21.095-.909 35.78 5.422 34.127 11.07Z" fill="url(#a)"/>
  <path d="M37.072 68.874c-17.129 12.81-21.46 35.159-22.165 45.652a71.4 71.4 0 0 0 6.432 7.209c1.743-6.255 6.716-21.548 15.733-30.564 16.12-16.121 40.898-2.234 44.375-7.506C84.96 78.34 71 73.311 71 73.311s22.65-1.11 23.39-8.32c.739-7.211-34.51-13.176-57.318 3.883Z" fill="#A1DDFB"/>
  <path d="M67.375 22.345c-10.28-2.893-10.52-13.47 26.908-18.437-12.669.546-27.745 3.68-43.252 11.069-29.273 13.95-43.934 33.605-49.994 43.88A71.194 71.194 0 0 0 0 71c0 2.762.158 5.489.466 8.168 5.51-9.142 18.893-27.468 41.69-36.18 0 0 35.5-17.75 25.22-20.643Z" fill="#0048C1"/>
  <path d="M57.21 59.69c-6.985 1.681-14.01 4.6-20.139 9.184-17.127 12.81-21.46 35.159-22.164 45.652a71.4 71.4 0 0 0 6.432 7.209c1.743-6.255 6.716-21.548 15.733-30.564a27.24 27.24 0 0 1 2.582-2.274v-.004s13.874-12.901 6.385-14.518c-7.486-1.616-.42-11.69 11.17-14.685Z" fill="#7DCFFF"/>
  <defs>
    <linearGradient id="a" x1="6.61587" y1="17.2151" x2="117.041" y2="78.0251" gradientUnits="userSpaceOnUse">
      <stop stop-color="#0048C1"/>
      <stop offset="1" stop-color="#1E91DD"/>
    </linearGradient>
  </defs>
</svg>
