<svg width="142" height="37" fill="none" xmlns="http://www.w3.org/2000/svg">
  <path d="M57.835 13.245c0 .936-.148 1.764-.442 2.485a4.85 4.85 0 0 1-1.286 1.828c-.562.49-1.255.863-2.077 1.12-.814.258-1.775.387-2.883.387h-1.403v5.317c0 .085-.03.163-.09.231a.548.548 0 0 1-.274.168c-.13.043-.303.077-.519.103a7.272 7.272 0 0 1-.831.038c-.33 0-.606-.012-.831-.038a2.744 2.744 0 0 1-.52-.103.549.549 0 0 1-.273-.168.375.375 0 0 1-.077-.231V9.396c0-.403.103-.704.311-.901.217-.206.498-.309.844-.309h3.961c.398 0 .775.017 1.13.051.364.026.797.09 1.299.194a5.484 5.484 0 0 1 1.52.54c.519.266.96.605 1.324 1.017.363.404.64.88.83 1.43.191.54.287 1.15.287 1.828Zm-3.572.245c0-.584-.103-1.064-.311-1.442-.208-.377-.463-.656-.767-.837a2.474 2.474 0 0 0-.96-.334 6.628 6.628 0 0 0-1.026-.078h-1.455v5.652h1.532c.546 0 1-.073 1.364-.219.372-.146.675-.347.91-.605.233-.266.41-.58.532-.94.12-.369.181-.768.181-1.197ZM63.562 24.407a.374.374 0 0 1-.078.232.611.611 0 0 1-.273.155 2.032 2.032 0 0 1-.493.09 6.641 6.641 0 0 1-.793.038c-.32 0-.584-.012-.792-.038a2.248 2.248 0 0 1-.506-.09.606.606 0 0 1-.26-.155.374.374 0 0 1-.078-.232V7.477c0-.085.026-.162.078-.23a.543.543 0 0 1 .26-.168c.13-.052.298-.09.506-.116.208-.026.472-.039.792-.039.32 0 .585.013.793.039.207.026.372.064.493.116.13.043.22.099.273.167a.374.374 0 0 1 .078.232v16.93ZM77.82 24.407a.426.426 0 0 1-.064.232.5.5 0 0 1-.234.155 1.537 1.537 0 0 1-.428.09 4.64 4.64 0 0 1-.663.038c-.285 0-.52-.012-.701-.038a1.504 1.504 0 0 1-.416-.09.499.499 0 0 1-.22-.155.425.425 0 0 1-.065-.232v-1.326c-.641.687-1.295 1.202-1.961 1.545a4.38 4.38 0 0 1-2.052.515c-.797 0-1.468-.128-2.013-.386a3.526 3.526 0 0 1-1.312-1.056 4.379 4.379 0 0 1-.714-1.545c-.138-.592-.208-1.326-.208-2.201v-7.03c0-.085.022-.158.065-.218a.543.543 0 0 1 .26-.168c.13-.043.299-.073.506-.09.217-.025.48-.038.793-.038.32 0 .584.013.792.038.208.018.372.048.493.09.13.043.221.1.273.168.052.06.078.133.078.219v6.488c0 .601.039 1.06.117 1.378.078.317.195.592.35.824.165.223.368.399.61.527.252.12.542.18.87.18.416 0 .832-.15 1.248-.45.424-.3.874-.738 1.35-1.313v-7.634c0-.086.022-.16.065-.22a.543.543 0 0 1 .26-.167c.13-.043.299-.073.506-.09.208-.025.472-.038.793-.038.32 0 .584.013.792.038.207.018.372.048.493.09a.543.543 0 0 1 .26.168c.052.06.078.133.078.219v11.483ZM87.976 23.274c0 .378-.026.67-.078.876-.043.197-.104.339-.181.425-.078.077-.195.15-.351.219-.147.06-.325.111-.533.154-.199.052-.42.09-.662.116a6.508 6.508 0 0 1-.714.039c-.65 0-1.212-.082-1.688-.245a2.838 2.838 0 0 1-1.182-.747c-.312-.343-.541-.772-.689-1.287-.147-.515-.22-1.125-.22-1.828v-5.884h-1.39c-.164 0-.29-.098-.376-.296-.087-.206-.13-.545-.13-1.017 0-.249.008-.46.026-.63.026-.172.06-.305.104-.4a.495.495 0 0 1 .155-.219.435.435 0 0 1 .234-.064h1.377V9.924c0-.086.021-.163.065-.232a.543.543 0 0 1 .26-.167c.13-.052.298-.086.506-.103.216-.026.48-.039.792-.039.32 0 .584.013.792.039.217.017.385.051.507.103a.544.544 0 0 1 .26.167.375.375 0 0 1 .077.232v2.562h2.52c.086 0 .16.021.22.064.07.043.126.116.17.22a1.3 1.3 0 0 1 .09.398c.026.172.04.382.04.631 0 .472-.044.811-.13 1.017-.087.198-.213.296-.377.296h-2.533v5.394c0 .627.1 1.1.3 1.417.198.309.553.463 1.064.463.173 0 .329-.013.468-.038.138-.035.26-.07.363-.104.113-.042.203-.077.273-.102a.526.526 0 0 1 .208-.052c.052 0 .1.017.142.052.052.025.091.085.117.18.026.086.048.206.065.36.026.155.04.352.04.592ZM101.794 18.55c0 .978-.13 1.87-.39 2.677a5.631 5.631 0 0 1-1.182 2.086c-.528.584-1.19 1.034-1.986 1.352-.797.317-1.728.476-2.793.476-1.03 0-1.926-.141-2.688-.425-.762-.283-1.394-.695-1.896-1.236-.502-.54-.874-1.205-1.117-1.995-.242-.79-.363-1.69-.363-2.704 0-.978.13-1.87.39-2.677.268-.816.666-1.511 1.194-2.086a5.274 5.274 0 0 1 1.974-1.352c.797-.317 1.727-.476 2.792-.476 1.039 0 1.94.141 2.701.425.762.274 1.39.682 1.883 1.223.502.54.875 1.206 1.117 1.995.243.79.364 1.695.364 2.717Zm-3.364.128c0-.566-.047-1.085-.143-1.557a3.57 3.57 0 0 0-.454-1.25 2.282 2.282 0 0 0-.87-.823c-.355-.197-.805-.296-1.35-.296-.486 0-.91.09-1.273.27-.364.172-.663.43-.897.773a3.696 3.696 0 0 0-.532 1.223 7.026 7.026 0 0 0-.169 1.622c0 .566.048 1.09.143 1.57.095.473.247.884.455 1.236.216.352.506.627.87.824.363.19.814.284 1.35.284.494 0 .922-.086 1.286-.258.364-.18.662-.438.896-.772.234-.335.407-.739.52-1.21a7.2 7.2 0 0 0 .168-1.636ZM116.053 18.511c0 1.021-.113 1.94-.338 2.755-.225.815-.549 1.51-.974 2.086a4.31 4.31 0 0 1-1.571 1.326c-.615.309-1.316.463-2.104.463a4.89 4.89 0 0 1-1.091-.116 3.678 3.678 0 0 1-.974-.347 5.676 5.676 0 0 1-.909-.618 9.02 9.02 0 0 1-.909-.901v1.248a.394.394 0 0 1-.078.245.498.498 0 0 1-.233.154 1.54 1.54 0 0 1-.429.09 7.202 7.202 0 0 1-.662.026 7.38 7.38 0 0 1-.676-.025 1.683 1.683 0 0 1-.428-.09.497.497 0 0 1-.221-.155.452.452 0 0 1-.065-.245V7.477c0-.085.026-.162.078-.23a.545.545 0 0 1 .26-.168 2.1 2.1 0 0 1 .506-.116c.208-.026.472-.039.792-.039.321 0 .585.013.793.039.207.026.372.064.493.116.13.043.221.099.273.167a.374.374 0 0 1 .078.232v6.347c.294-.292.588-.54.883-.747.294-.206.588-.373.883-.502.294-.137.597-.236.909-.296.312-.06.641-.09.987-.09.857 0 1.584.171 2.182.515.597.335 1.082.79 1.454 1.364.381.575.658 1.25.831 2.022.173.764.26 1.57.26 2.42Zm-3.39.232c0-.49-.038-.961-.116-1.416a3.913 3.913 0 0 0-.377-1.21 2.274 2.274 0 0 0-.714-.837c-.286-.215-.65-.322-1.091-.322-.217 0-.429.03-.636.09-.208.06-.425.163-.65.309a4.773 4.773 0 0 0-.675.566c-.234.232-.481.52-.74.863v3.81c.459.584.896 1.03 1.311 1.34.425.3.866.45 1.325.45.424 0 .783-.107 1.078-.322.294-.214.537-.493.727-.837.199-.343.342-.733.429-1.171.086-.438.129-.876.129-1.313ZM128.546 24.446a.34.34 0 0 1-.13.283c-.087.069-.225.116-.416.142a4.762 4.762 0 0 1-.818.051c-.389 0-.675-.017-.857-.051-.173-.026-.298-.073-.376-.142a.378.378 0 0 1-.104-.283v-.914a5.237 5.237 0 0 1-1.637 1.184c-.606.284-1.281.425-2.025.425a5.66 5.66 0 0 1-1.702-.244 3.886 3.886 0 0 1-1.337-.696 3.264 3.264 0 0 1-.87-1.171c-.208-.464-.312-1.004-.312-1.622 0-.67.13-1.25.39-1.738a3.207 3.207 0 0 1 1.181-1.223c.528-.326 1.182-.567 1.961-.721.779-.155 1.684-.232 2.714-.232h1.13v-.695c0-.36-.039-.674-.117-.94a1.487 1.487 0 0 0-.363-.682 1.462 1.462 0 0 0-.676-.4c-.277-.085-.623-.128-1.038-.128-.546 0-1.035.06-1.468.18-.424.12-.801.253-1.13.4-.329.145-.606.278-.831.398-.216.12-.394.18-.532.18a.414.414 0 0 1-.26-.09.763.763 0 0 1-.182-.257 2.061 2.061 0 0 1-.104-.412 3.448 3.448 0 0 1-.039-.54c0-.267.022-.477.065-.632a.934.934 0 0 1 .247-.412c.121-.128.333-.266.636-.412a7.001 7.001 0 0 1 1.065-.424 9.364 9.364 0 0 1 1.325-.31 8.54 8.54 0 0 1 1.493-.128c.909 0 1.684.09 2.325.27.649.172 1.182.442 1.597.811.416.36.719.829.909 1.403.191.576.286 1.258.286 2.047v7.725Zm-3.208-4.918h-1.246c-.529 0-.979.039-1.351.116-.372.077-.675.193-.909.348a1.478 1.478 0 0 0-.52.566 1.707 1.707 0 0 0-.155.747c0 .48.151.858.454 1.133.312.274.74.412 1.286.412.459 0 .879-.116 1.259-.348.39-.232.784-.57 1.182-1.017v-1.957ZM138.039 24.845l-1.403 4.068c-.077.215-.29.37-.636.464-.346.094-.853.141-1.519.141-.347 0-.624-.017-.831-.051-.208-.026-.364-.073-.468-.142-.104-.068-.16-.154-.169-.257a.84.84 0 0 1 .078-.373l1.546-3.85a.977.977 0 0 1-.312-.232 1.252 1.252 0 0 1-.195-.347l-3.987-10.557c-.112-.3-.169-.528-.169-.682 0-.163.052-.288.156-.374.104-.094.277-.159.52-.193.251-.034.58-.051.987-.051.372 0 .666.008.883.025.216.009.385.04.506.09a.544.544 0 0 1 .273.245c.061.103.121.253.182.45l2.727 7.687h.039l2.493-7.84c.052-.224.117-.37.195-.438.087-.078.225-.133.416-.168.19-.034.523-.051 1-.051.372 0 .679.017.922.051.251.034.433.099.545.193a.464.464 0 0 1 .182.386c0 .155-.035.34-.104.554l-3.857 11.252Z" fill="currentColor"/>
  <path fill-rule="evenodd" clip-rule="evenodd" d="M30.796 28.92a16.323 16.323 0 0 0 3.984-10.703c0-9.101-7.443-16.48-16.623-16.48-7.974 0-14.638 5.569-16.25 12.997l.457.543a82.52 82.52 0 0 0 2.48 2.773c2.104 2.253 5 5.114 8.205 7.61 3.23 2.517 6.648 4.563 9.802 5.332 3.053.743 5.74.281 7.945-2.072Zm1.146 1.012C21.252 41.41.28 15.184.265 15.139 1.738 6.664 9.188.217 18.157.217c10.028 0 18.157 8.059 18.157 18 0 4.474-1.647 8.566-4.372 11.715Z" fill="#194185"/>
  <path d="M21.037 14.496c0-3.393 1.038-6.546 2.817-9.163 0 0-18.342 1.814-23.734 14.952a.09.09 0 0 0 0 .005c.007.01.038.056.094.134.937 1.308 9.976 16.004 29.65 11.55a18.2 18.2 0 0 0 2.078-2.043c-6.361-2.29-10.905-8.337-10.905-15.435Z" fill="#64B6EC"/>
  <path d="M21.233 11.965a16.24 16.24 0 0 1 2.62-6.632S5.514 7.147.12 20.285v.005c.007.01.038.056.094.134.346.482 1.792 2.782 4.464 5.272 1.839-7.557 8.487-13.255 16.555-13.73Z" fill="#4B9FDB"/>
  <path d="M19.518 33.373c-5.723-5.588-7.327-14.444-3.354-21.827a18.447 18.447 0 0 1 7.683-7.608S6.27 7.006.12 20.286a17.829 17.829 0 0 0 3.693 8.966c.039.028 5.724 4.128 15.705 4.12Z" fill="#4B9FDB"/>
  <path d="M15.327 13.32a18.447 18.447 0 0 1 8.52-9.381c0-.001-17.578 3.067-23.727 16.347a17.829 17.829 0 0 0 3.693 8.966c.005.004.129.093.364.241.176-7.292 4.727-13.51 11.15-16.174Z" fill="#3188CA"/>
  <path d="M18.162 26.06a13.369 13.369 0 0 1-2.357-7.53S5.83 20.294 5.457 31.08l10.668 5.024c.668.074 1.345.113 2.032.113 4.462 0 8.546-1.596 11.708-4.243-4.505.136-8.982-1.944-11.703-5.913Z" fill="#A1DDFB"/>
  <path d="M5.458 31.08a18.172 18.172 0 0 1 11.772-6.597 13.341 13.341 0 0 1-1.425-5.953S5.83 20.294 5.457 31.08h.001Z" fill="#7DCFFF"/>
  <path d="M12.015 25.494a13.383 13.383 0 0 1 2.826-7.37S4.98 20.762 5.457 31.079a18.162 18.162 0 0 0 10.669 5.025c-2.775-2.67-4.392-6.486-4.11-10.61Z" fill="#7DCFFF"/>
  <path d="M5.458 31.08a18.199 18.199 0 0 1 6.533-5.085 13.383 13.383 0 0 1 2.85-7.871S4.98 20.762 5.457 31.079v.001Z" fill="#64B6EC"/>
  <path d="M32.839 4.014c-.284.96-7.447.633-7.447 2.039 0 1.406 5.319 2.812 3.971 4.289-1.347 1.476-5.957-4.008-18.582.773C4.95 13.324 1.528 17.97.119 20.288a17.983 17.983 0 0 1 .146-5.15c1.55-2.604 5.3-7.588 12.785-11.124 3.966-1.873 7.821-2.668 11.061-2.806 5.395-.231 9.15 1.374 8.728 2.806Z" fill="url(#a)"/>
  <path d="M9.48 17.678C5.1 20.926 3.992 26.59 3.812 29.252a18.17 18.17 0 0 0 1.645 1.827c.446-1.585 1.718-5.463 4.023-7.748 4.123-4.087 10.46-.567 11.349-1.903.898-1.35-2.672-2.625-2.672-2.625s5.792-.282 5.982-2.11c.189-1.828-8.826-3.34-14.659.985Z" fill="#A1DDFB"/>
  <path d="M17.23 5.882c-2.629-.734-2.69-3.415 6.881-4.674-3.24.138-7.095.933-11.06 2.806C5.563 7.55 1.814 12.534.264 15.139a17.897 17.897 0 0 0-.146 5.149c1.41-2.318 4.832-6.964 10.662-9.173 0 0 9.078-4.5 6.45-5.233Z" fill="#194185"/>
  <path d="M14.63 15.35c-1.786.426-3.583 1.166-5.15 2.328-4.38 3.248-5.488 8.913-5.668 11.574a18.17 18.17 0 0 0 1.645 1.827c.446-1.585 1.718-5.463 4.023-7.748.215-.213.435-.404.66-.577 0 0 3.549-3.272 1.634-3.681-1.915-.41-.108-2.964 2.857-3.724Z" fill="#7DCFFF"/>
  <defs>
    <linearGradient id="a" x1="1.6919" y1="5.02765" x2="31.347" y2="19.5871" gradientUnits="userSpaceOnUse">
      <stop stop-color="#194185"/>
      <stop offset="1" stop-color="#038AE4"/>
    </linearGradient>
  </defs>
</svg>
