<svg fill="none" xmlns="http://www.w3.org/2000/svg" viewBox="0 0 49 49">
  <path d="M24.395 49c-1.116 0-2.059-.383-2.827-1.15-.767-.835-1.151-1.81-1.151-2.925V28.522H3.979c-1.117 0-2.06-.383-2.827-1.149C.384 26.537 0 25.563 0 24.448c0-1.184.384-2.16 1.152-2.926.768-.766 1.71-1.149 2.827-1.149h16.438V3.97c0-1.114.384-2.055 1.151-2.82C22.336.382 23.278 0 24.395 0c1.187 0 2.164.383 2.932 1.15.768.765 1.152 1.706 1.152 2.82v16.403h16.438c1.116 0 2.059.418 2.827 1.254.837.766 1.256 1.706 1.256 2.82 0 1.115-.419 2.09-1.256 2.926-.768.766-1.71 1.15-2.827 1.15H28.479v16.402c0 1.115-.384 2.09-1.152 2.926-.768.766-1.745 1.149-2.932 1.149Z" fill="currentColor"/>
</svg>
