<svg width="24" height="24" fill="none" xmlns="http://www.w3.org/2000/svg">
  <path d="M12 24c6.627 0 12-5.373 12-12S18.627 0 12 0 0 5.373 0 12s5.373 12 12 12Z" fill="currentColor"/>
  <path fill-rule="evenodd" clip-rule="evenodd"
        d="M5.432 11.873c3.498-1.524 5.83-2.529 6.998-3.014 3.332-1.387 4.025-1.627 4.476-1.635.1-.002.321.023.465.14.213.172.215.548.191.797-.18 1.897-.962 6.502-1.36 8.627-.168.9-.499 1.2-.82 1.23-.696.064-1.226-.46-1.9-.903-1.057-.692-1.653-1.123-2.679-1.798-1.184-.781-.416-1.21.259-1.912.177-.183 3.247-2.976 3.306-3.23.008-.031.015-.15-.055-.211-.07-.063-.174-.042-.249-.025-.106.024-1.793 1.14-5.062 3.346-.478.329-.912.49-1.3.48-.43-.008-1.253-.242-1.866-.44-.752-.245-1.349-.374-1.297-.789.027-.216.325-.437.893-.663Z"
        fill="white"/>
</svg>
