<svg width="24" height="20" fill="none" xmlns="http://www.w3.org/2000/svg">
  <path
    d="M7.539 19.5c9.057 0 14.011-7.504 14.011-14 0-.21 0-.424-.009-.634A10.027 10.027 0 0 0 24 2.313a9.987 9.987 0 0 1-2.834.777A4.951 4.951 0 0 0 23.337.365a9.8 9.8 0 0 1-3.13 1.19 4.929 4.929 0 0 0-8.395 4.49A13.988 13.988 0 0 1 1.662.902a4.933 4.933 0 0 0 1.527 6.573A4.984 4.984 0 0 1 .96 6.863v.067a4.932 4.932 0 0 0 3.948 4.827c-.423.117-.86.175-1.298.173-.309 0-.617-.028-.92-.086a4.925 4.925 0 0 0 4.6 3.416 9.882 9.882 0 0 1-6.12 2.11A9.492 9.492 0 0 1 0 17.303 14.016 14.016 0 0 0 7.539 19.5Z"
    fill="currentColor"/>
</svg>
