<svg width="23" height="22" fill="none" xmlns="http://www.w3.org/2000/svg">
  <path
    d="m3.888 20.263.392-.64-.392.64Zm-1.651-1.65.64-.392-.64.392Zm18.526 0-.64-.392.64.392Zm-1.65 1.65-.392-.64.392.64Zm0-15.526-.392.64.392-.64Zm1.65 1.65-.64.392.64-.391ZM3.888 4.738l.392.64-.392-.64Zm-1.651 1.65.64.392-.64-.391Zm15.74-4.84.541-.52-.541.52ZM3.344 1.89l.453.598-.453-.598Zm-.99 1.032.616.428-.615-.428ZM18.5 4.13h.75v-.003l-.75.003Zm-.636 8.484a.75.75 0 0 0 0-1.5v1.5Zm-2.728-1.5a.75.75 0 1 0 0 1.5v-1.5ZM10 4.75h3v-1.5h-3v1.5Zm3 15.5h-3v1.5h3v-1.5Zm-3 0c-1.651 0-2.837 0-3.762-.089-.914-.087-1.495-.253-1.958-.537l-.784 1.279c.739.452 1.577.654 2.6.752 1.013.096 2.282.095 3.904.095v-1.5ZM.75 12.5c0 1.622 0 2.892.096 3.904.097 1.023.299 1.861.751 2.6l1.28-.783c-.285-.464-.451-1.045-.538-1.96-.088-.924-.089-2.11-.089-3.761H.75Zm3.53 7.124a4.25 4.25 0 0 1-1.404-1.403l-1.279.783a5.75 5.75 0 0 0 1.899 1.899l.784-1.28ZM13 21.75c1.622 0 2.892 0 3.904-.096 1.024-.097 1.862-.299 2.6-.751l-.783-1.28c-.464.285-1.045.451-1.959.538-.925.088-2.11.089-3.762.089v1.5Zm7.124-3.53a4.25 4.25 0 0 1-1.403 1.404l.784 1.279a5.75 5.75 0 0 0 1.898-1.899l-1.28-.783ZM18.72 5.377c.572.35 1.052.832 1.403 1.403l1.279-.783a5.75 5.75 0 0 0-1.898-1.899l-.784 1.28ZM10 3.25c-1.623 0-2.892 0-3.905.095-1.023.098-1.861.3-2.6.752l.784 1.28c.463-.285 1.044-.451 1.958-.538.925-.088 2.11-.089 3.762-.089v-1.5ZM2.25 12.5c0-1.651 0-2.837.088-3.762.087-.914.253-1.495.537-1.959l-1.279-.783c-.452.738-.654 1.577-.751 2.6C.749 9.608.75 10.878.75 12.5h1.5Zm1.245-8.403a5.75 5.75 0 0 0-1.899 1.899l1.28.783A4.25 4.25 0 0 1 4.28 5.376l-.784-1.279ZM9.553 1.75h5.369V.25H9.553v1.5Zm5.369 0c.866 0 1.436.002 1.86.061.398.056.553.15.654.255l1.082-1.039c-.423-.44-.952-.62-1.528-.701C16.438.248 15.744.25 14.922.25v1.5ZM9.553.25c-1.66 0-2.968-.001-4.006.116-1.053.12-1.917.368-2.655.927l.905 1.196c.438-.332 1-.529 1.919-.632.934-.106 2.142-.107 3.837-.107V.25ZM2.25 9.396c0-1.765.001-3.031.103-4.011.1-.968.293-1.568.617-2.034l-1.23-.857C1.21 3.254.973 4.142.86 5.23.749 6.305.751 7.663.751 9.396h1.5Zm.642-8.103a5.324 5.324 0 0 0-1.153 1.2l1.23.858c.232-.332.512-.623.828-.862l-.905-1.196ZM19.25 4.127c-.003-.677-.018-1.263-.102-1.75-.088-.505-.262-.967-.63-1.35l-1.082 1.039c.093.097.177.244.234.57.06.343.077.809.08 1.498l1.5-.007ZM.75 9.396c0 .975-.02 1.868 0 2.624l1.5-.04c-.02-.732 0-1.556 0-2.584H.75ZM21 13.84h-5.864v1.5H21v-1.5Zm-9.34-1.977a3.477 3.477 0 0 0 3.476 3.477v-1.5a1.977 1.977 0 0 1-1.977-1.977h-1.5Zm1.5 0c0-1.092.884-1.978 1.976-1.978v-1.5a3.477 3.477 0 0 0-3.477 3.478h1.5Zm4.704-.75h-2.728v1.5h2.728v-1.5ZM13 4.75c1.385 0 2.445 0 3.304.053.857.053 1.457.156 1.93.336l.532-1.402c-.68-.259-1.454-.374-2.37-.43-.915-.057-2.029-.057-3.396-.057v1.5Zm5.234.389c.177.067.337.146.487.237l.784-1.279a4.38 4.38 0 0 0-.739-.36l-.532 1.402ZM17.75 4.13v.308h1.5V4.13h-1.5Zm-2.614 5.756h6.309v-1.5h-6.309v1.5ZM22.25 12.5c0-1.374 0-2.492-.057-3.41l-1.497.093c.054.86.054 1.925.054 3.317h1.5Zm-.057-3.41c-.078-1.255-.268-2.243-.79-3.094l-1.28.783c.33.537.5 1.228.573 2.404l1.497-.093ZM20.75 12.5c0 .787 0 1.472-.01 2.079l1.5.024c.01-.62.01-1.32.01-2.103h-1.5Zm-.01 2.079c-.032 1.958-.176 2.924-.616 3.642l1.279.783c.68-1.11.805-2.473.837-4.4l-1.5-.025Zm.26.762h.49v-1.5H21v1.5Z"
    fill="currentColor"/>
</svg>
